<?xml version="1.0" encoding="UTF-8" standalone="no"?>
<svg
   xmlns:dc="http://purl.org/dc/elements/1.1/"
   xmlns:cc="http://creativecommons.org/ns#"
   xmlns:rdf="http://www.w3.org/1999/02/22-rdf-syntax-ns#"
   xmlns:svg="http://www.w3.org/2000/svg"
   xmlns="http://www.w3.org/2000/svg"
   xmlns:sodipodi="http://sodipodi.sourceforge.net/DTD/sodipodi-0.dtd"
   xmlns:inkscape="http://www.inkscape.org/namespaces/inkscape"
   version="1.1"
   id="Layer_1"
   x="0px"
   y="0px"
   width="1000px"
   height="1000px"
   viewBox="0 0 1000 1000"
   style="enable-background:new 0 0 1000 1000;"
   xml:space="preserve"
   sodipodi:docname="swirly-split-frames-3.svg"
   inkscape:version="1.0.1 (c497b03c, 2020-09-10)"><metadata
   id="metadata844"><rdf:RDF><cc:Work
       rdf:about=""><dc:format>image/svg+xml</dc:format><dc:type
         rdf:resource="http://purl.org/dc/dcmitype/StillImage" /></cc:Work></rdf:RDF></metadata><defs
   id="defs842">
	
	
</defs><sodipodi:namedview
   pagecolor="#ffffff"
   bordercolor="#666666"
   borderopacity="1"
   objecttolerance="10"
   gridtolerance="10"
   guidetolerance="10"
   inkscape:pageopacity="0"
   inkscape:pageshadow="2"
   inkscape:window-width="1707"
   inkscape:window-height="973"
   id="namedview840"
   showgrid="false"
   inkscape:zoom="1.0323759"
   inkscape:cx="596.17864"
   inkscape:cy="337.18696"
   inkscape:window-x="0"
   inkscape:window-y="38"
   inkscape:window-maximized="0"
   inkscape:current-layer="Layer_1" />
<path
   id="path833"
   d="M 534.79883,187.08008 C 532.5,187.05469 530.25,187.3125 528,188 c -3.8,1.1 -6.90039,2.79922 -9.90039,5.19922 -2.8,2.4 -5.19961,5.40117 -6.59961,8.70117 -0.5,0.9 -0.79961,1.6 -1.09961,2.5 -0.3,-0.9 -0.79961,-1.6 -1.09961,-2.5 -1.4,-3.3 -3.90156,-6.30117 -6.60156,-8.70117 -2.8,-2.4 -6.29844,-4.09922 -9.89844,-5.19922 -3.6,-0.9 -7.2,-1.09961 -11,-0.59961 -3.8,0.5 -7.40117,1.6 -10.70117,3.5 -2.7,1.4 -5.20039,3.3 -6.90039,5.5 -1.9,2.2 -3.49922,4.69961 -4.19922,7.59961 -0.8,2.4 -1.09961,4.89922 -1.09961,7.19922 0.2,2.5 0.59961,4.90156 1.59961,7.10156 2,4.7 6.30078,8.49883 11.80078,9.29883 2.8,0.5 5.99922,0.20039 8.69922,-0.59961 2.8,-0.9 5.49961,-2.50039 7.09961,-4.90039 1.6,-2.4 1.90078,-5.00039 1.30078,-7.90039 -0.8,-2.7 -2.40117,-5 -4.70117,-6.5 -2,-1.3 -4.59961,-1.89844 -7.09961,-1.89844 -2.4,0 -4.90039,0.49961 -6.90039,1.59961 0,-0.3 0.20078,-0.80039 0.30078,-0.90039 0.5,-1.4 1.29922,-2.80039 2.19922,-3.90039 1.1,-1.3 2.40078,-2.2 3.80078,-3 2,-1.1 4.2,-1.60039 6.5,-1.90039 1.9,-0.3 3.90078,-0.29922 5.80078,0.30078 2,0.5 3.9,1.40078 5.5,2.80078 1.7,1.4 3.29922,3.49844 4.19922,5.39844 1.1,1.9 1.59961,4.1 1.59961,6.5 0.2,2.5 -0.49883,5.00039 -1.29883,7.40039 -1.1,3 -2.70156,6 -4.60156,8.5 -1.9,2.5 -4.19844,4.90078 -6.89844,6.80078 -3,2 -6.50156,3.79961 -10.10156,4.59961 -4.6,1.3 -9.09883,1.09922 -13.79883,0.19922 -8.7,-1.4 -16.20078,-4.59883 -23.80078,-8.29883 -6.3,-3 -12.30039,-6.1 -18.90039,-8.5 -7.4,-2.8 -15.1,-4.9 -23,-6.5 -7.4,-1.3 -15.09883,-2.00039 -22.79883,-1.90039 -7.1,0.2 -14.20117,1.1 -21.20117,3 -6.5,1.7 -12.69844,4.40039 -18.39844,7.90039 -5.7,3.5 -10.9,7.89922 -15,12.69922 -3.9,4.7 -6.90078,9.90117 -8.80078,15.70117 -1.6,5.2 -1.99961,10.89922 -1.59961,16.19922 0.5,5.5 1.69961,11.20039 4.09961,16.40039 1.7,3.9 4.19961,7.7 7.59961,11 3.1,3 6.8,5.39883 11,6.79883 3.9,1.3 8.29961,2 12.59961,2 0.9,0 1.70078,7.8e-4 2.80078,-0.19922 -1.1,0.9 -1.99961,1.69922 -3.09961,2.69922 -6.5,5.4 -12.90078,10.10078 -19.80078,14.30078 -6.5,3.9 -13.4,7.59922 -20.5,10.69922 -6.5,2.7 -13.09883,4.70156 -19.79883,6.10156 -6.3,1.3 -12.40039,1.69844 -18.90039,1.39844 -6,-0.3 -11.99961,-1.29883 -17.59961,-3.29883 -4.9,-1.6 -9.30117,-4.10039 -13.20117,-7.40039 -3.5,-3 -6.29922,-6.59922 -8.19922,-10.69922 -2,-4.1 -3.60039,-9 -3.90039,-13.5 -0.6,-6.8 1.3,-13.10039 6.5,-18.40039 2.5,-2.5 5.50078,-4.59961 8.80078,-6.09961 3.1,-1.4 6.49961,-2.5 9.59961,-3 3,-0.3 6.1,0.19961 9,1.09961 3,0.9 5.7,2.39922 8,4.19922 2.2,1.9 3.90039,4.1 5.40039,6.5 1.3,2.2 1.89922,4.59961 2.19922,7.09961 0.2,1.6 -0.20039,3.30039 -0.90039,4.90039 0,-2.4 -0.8,-4.89883 -2.5,-6.79883 -2.5,-2.7 -6.49922,-3.90078 -10.19922,-3.80078 -1.7,0.2 -3.80039,0.60078 -5.40039,1.30078 -1.7,0.8 -3.29961,1.89961 -4.59961,3.09961 -3.1,3 -4.20039,6.60039 -3.90039,10.90039 0.3,2.7 1.30078,5.39961 2.80078,7.59961 1.6,2.2 3.89883,3.90039 6.79883,4.90039 3.3,1.1 7.10039,0.8 10.40039,0 3.5,-0.8 6.80078,-2.40117 9.80078,-4.20117 3.1,-2 5.69844,-4.89922 7.39844,-8.19922 1.6,-3.3 2.40117,-6.80039 2.20117,-10.40039 -0.2,-3.9 -1.30078,-7.70078 -3.30078,-11.30078 -1.7,-3.6 -4.39961,-6.79961 -7.59961,-9.59961 -3.5,-2.8 -7.4,-5.2 -12,-6.5 -4.2,-1.3 -9.00078,-1.90039 -13.80078,-1.40039 -4.9,0.6 -9.79883,2.00156 -14.29883,4.10156 -4.4,2.2 -8.79961,5.19883 -12.09961,8.79883 -7.6,7.7 -10.40039,16.80039 -9.40039,26.90039 0.5,3.6 1.30039,7.1 2.40039,10.5 -1.3,-0.5 -2.40156,-0.90078 -3.60156,-1.30078 -6,-1.9 -12.09961,-2.69922 -18.59961,-1.69922 -5.4,0.8 -10.4,2.7 -15,5.5 -3.9,2.4 -7.40039,5.19922 -10.40039,8.69922 -3,3.3 -5.49922,7.10117 -7.19922,11.20117 -1.4,3.5 -2.49922,7.10039 -2.69922,10.90039 l 0.38356,25.22349 27.27526,-0.0139 c 0,0 6.51677,-1.1613 12.0404,-3.60999 v 0 c 1.2,-1 2.40039,-1.6 3.40039,-2.5 2,-2 3.80039,-4.40039 4.90039,-6.90039 1.1,-2.4 1.59844,-4.69922 1.89844,-7.19922 0.3,-2.4 0.1,-4.80156 -0.5,-7.10156 -1.3,-5 -4.59883,-9.09844 -9.79883,-10.89844 -2.7,-0.8 -5.70078,-0.80117 -8.30078,-0.20117 -2.8,0.6 -5.70039,2.00117 -7.40039,4.20117 -1.7,2.2 -2.49922,4.99922 -2.19922,7.69922 0.3,2.7 1.60078,5.20078 3.80078,6.80078 1.7,1.6 4.1,2.39922 6.5,2.69922 2.2,0.2 4.69961,-3.9e-4 6.59961,-0.90039 0,0.3 -0.2,0.79961 -0.5,1.09961 -0.6,1.3 -1.4,2.70078 -2.5,3.80078 -1.3,1.3 -2.50039,1.89922 -3.90039,2.69922 -1.9,0.9 -3.89961,1.30039 -6.09961,1.40039 -1.9,0.2 -3.9,3.9e-4 -5.5,-0.59961 -1.7,-0.8 -3.50117,-1.90078 -4.70117,-3.30078 -1.4,-1.6 -2.79961,-3.59922 -3.59961,-5.69922 -0.8,-2.1 -1.10039,-4.2 -0.90039,-6.5 0.2,-2.5 0.9,-5.00039 2,-7.40039 1.3,-3 3.10039,-5.79883 5.40039,-8.29883 2,-2.4 4.70117,-4.6 7.70117,-6.5 3.1,-1.9 6.59844,-3.30039 10.39844,-3.90039 4.7,-0.6 9.1,-10e-4 13.5,1.29883 8.2,2.5 15.00117,6.6 21.20117,12 4.9,4.1 10.9,7.20039 17,9.40039 6.8,2.4 13.99961,3.60039 21.09961,3.90039 7.2,0.3 14.49922,-0.29961 21.69922,-1.59961 7.6,-1.4 15,-3.90078 22,-6.80078 7.7,-3.3 15.10117,-7.09961 22.20117,-11.59961 7.4,-4.6 14.50039,-9.80078 21.40039,-15.30078 10.1,-8.5 19.39883,-17.79922 28.29883,-27.19922 0.6,2.4 1.30039,4.70039 2.40039,6.90039 1.7,3.9 4.40039,7.69922 7.90039,10.69922 3.1,3 6.89883,5.39961 11.29883,6.59961 3.9,1.3 8.20078,1.60078 12.30078,1.30078 4.2,-0.5 8.50078,-1.59961 12.30078,-3.59961 3.3,-1.6 5.99883,-3.8 8.29883,-6.5 2.4,-2.5 4.1,-5.50078 5.5,-8.80078 1.1,-2.8 1.60117,-6 1.70117,-9 0.2,-3.1 -0.20078,-6.1 -1.30078,-9 -1.9,-5.8 -6.49961,-10.90039 -13.09961,-12.40039 -3.3,-0.8 -6.90117,-0.59922 -10.20117,0.30078 -3.3,0.9 -6.5,2.70039 -8.5,5.40039 -1.9,2.7 -2.49844,6.09961 -1.89844,9.09961 0.6,3 2.5,6.00039 5,7.90039 2.2,1.6 5,2.49922 8,2.69922 2.7,0.2 6,-0.49961 8.5,-1.59961 0.6,-0.3 1.29961,-0.79961 1.59961,-1.09961 -0.3,1.3 -0.59961,2.70039 -1.09961,3.90039 -0.8,1.9 -1.70078,3.79922 -3.30078,5.19922 -1.4,1.6 -3.3,2.80039 -5,3.90039 -2.5,1.3 -5.39922,2.00039 -8.19922,2.40039 -2.5,0.3 -5.00156,0.19844 -7.60156,-0.60156 -2.7,-0.9 -4.99844,-2.39961 -6.89844,-4.09961 -2.2,-2 -3.90039,-4.59922 -5.40039,-7.19922 -1.3,-2.7 -1.70039,-5.70117 -1.90039,-8.70117 0,-3.5 0.59922,-6.59844 1.69922,-9.89844 1.4,-3.9 3.60078,-7.70117 6.30078,-11.20117 2.7,-3.3 6.00039,-6.49883 9.40039,-8.79883 4.1,-2.8 8.79883,-4.70117 13.79883,-5.70117 6.1,-1.3 12.30156,-0.59961 18.10156,0.90039 6,1.4 11.59883,4.09961 16.79883,6.59961 6.5,3.1 12.70039,6.60039 18.90039,10.40039 6.1,3.8 12.10039,7.59961 18.90039,9.59961 9.6,3.1 20.50039,2.70117 29.90039,-0.79883 6.5,-2.4 11.99961,-6.00039 17.59961,-9.40039 5.7,-3.8 11.80039,-6.80078 17.90039,-9.80078 5.4,-2.7 11.19883,-5.19961 16.79883,-6.59961 6,-1.4 11.99961,-2.00039 18.09961,-0.90039 5,0.9 9.60078,2.80117 13.80078,5.70117 3.6,2.4 6.80039,5.49883 9.40039,8.79883 2.7,3.5 4.69883,7.20117 6.29883,11.20117 1.3,3.3 1.70117,6.49844 1.70117,9.89844 0,3 -0.80039,6.00117 -1.90039,8.70117 -1.3,2.7 -3.00039,5.19922 -5.40039,7.19922 -1.9,1.7 -4.20039,3.29961 -6.90039,4.09961 -2.4,0.8 -4.89961,0.90156 -7.59961,0.60156 -2.8,-0.3 -5.69922,-1.10039 -8.19922,-2.40039 -1.7,-0.9 -3.6,-2.20039 -5,-3.90039 -1.4,-1.4 -2.50078,-3.29922 -3.30078,-5.19922 -0.5,-1.3 -0.79961,-2.50039 -1.09961,-3.90039 0.6,0.3 1.29961,0.79961 1.59961,1.09961 2.5,1.3 5.7,1.69961 8.5,1.59961 3,-0.2 5.8,-0.89922 8,-2.69922 2.7,-1.9 4.4,-4.90039 5,-7.90039 0.6,-3.1 -3.9e-4,-6.49961 -1.90039,-9.09961 -1.9,-2.6 -5.2,-4.40039 -8.5,-5.40039 -3.3,-0.9 -6.89922,-1.10078 -10.19922,-0.30078 -6.5,1.6 -11.19961,6.50039 -13.09961,12.40039 -0.9,2.8 -1.30078,5.8 -1.30078,9 0.2,3 0.80117,6.1 1.70117,9 1.3,3.3 3.1,6.30078 5.5,8.80078 2.4,2.7 5.19883,4.7 8.29883,6.5 3.9,1.9 8.20078,3.09961 12.30078,3.59961 4.1,0.5 8.29883,0.19922 12.29883,-1.30078 4.2,-1.3 8.20078,-3.79961 11.30078,-6.59961 3.5,-3 6.10039,-6.59922 7.90039,-10.69922 1.1,-2.2 1.70039,-4.60039 2.40039,-6.90039 9,9.4 18.29883,18.89922 28.29883,27.19922 6.8,5.7 14.00039,10.70078 21.40039,15.30078 7.1,4.2 14.49922,8.29961 22.19922,11.59961 7.1,3 14.5,5.40078 22,6.80078 7.1,1.3 14.50117,1.89961 21.70117,1.59961 7.1,-0.3 14.19961,-1.40039 21.09961,-3.90039 6.1,-2 12.1,-5.20039 17,-9.40039 6.3,-5.4 13.09922,-9.4 21.19922,-12 4.2,-1.3 8.8,-1.89883 13.5,-1.29883 3.8,0.6 7.20039,1.90039 10.40039,3.90039 2.8,1.7 5.50117,3.9 7.70117,6.5 2.2,2.6 4.09844,5.39883 5.39844,8.29883 1.3,2.4 1.7,4.90039 2,7.40039 0.2,2.2 -0.19844,4.4 -0.89844,6.5 -0.8,2 -1.90156,3.89922 -3.60156,5.69922 -1.3,1.3 -2.79922,2.50078 -4.69922,3.30078 -1.6,0.6 -3.6,0.79961 -5.5,0.59961 -2,-0.2 -4.09961,-0.60039 -6.09961,-1.40039 -1.4,-0.8 -2.80039,-1.39922 -3.90039,-2.69922 -1.1,-1.1 -1.9,-2.40078 -2.5,-3.80078 -0.2,-0.3 -0.3,-0.59961 -0.5,-1.09961 1.9,0.9 4.39961,1.30039 6.59961,0.90039 2.4,-0.2 4.7,-1.09922 6.5,-2.69922 2,-1.7 3.50078,-4.20078 3.80078,-6.80078 0.3,-2.7 -0.30117,-5.49922 -2.20117,-7.69922 -1.7,-2.2 -4.59844,-3.80117 -7.39844,-4.20117 -2.7,-0.6 -5.70078,-0.59883 -8.30078,0.20117 -5.4,1.4 -8.70078,5.79844 -9.80078,10.89844 -0.6,2.4 -0.8,4.90117 -0.5,7.20117 0.3,2.5 0.90039,4.89922 1.90039,7.19922 1.3,2.5 2.80039,4.80078 4.90039,6.80078 1,1 2.09922,1.5 3.19922,2.5 0,0 5.89234,3.57399 12.37695,3.375 l 27.33107,0.38899 c 0,0 1.18329,-17.48618 0.59276,-25.46516 -0.3,-3.8 -1.29922,-7.19883 -2.69922,-10.79883 -1.7,-3.9 -4.20117,-7.70117 -7.20117,-11.20117 -3,-3.5 -6.50039,-6.29922 -10.40039,-8.69922 -4.6,-2.8 -9.6,-4.7 -15,-5.5 -6.5,-0.9 -12.69961,-0.20078 -18.59961,1.69922 -1.3,0.3 -2.39961,0.80078 -3.59961,1.30078 1.3,-3.5 1.90039,-6.9 2.40039,-10.5 0.9,-9.9 -1.90039,-19.20039 -9.40039,-26.90039 -3.5,-3.6 -7.69961,-6.49883 -12.09961,-8.79883 -4.4,-2 -9.30078,-3.60156 -14.30078,-4.10156 -4.7,-0.5 -9.39883,0.20039 -13.79883,1.40039 -4.6,1.4 -8.7,3.8 -12,6.5 -3.1,2.7 -5.80156,6.09961 -7.60156,9.59961 -1.7,3.5 -3.09883,7.20078 -3.29883,11.30078 -0.2,3.6 0.59922,7.10039 2.19922,10.40039 1.7,3.3 4.20039,6.09922 7.40039,8.19922 3,1.9 6.50078,3.60117 9.80078,4.20117 3.3,0.8 7.09844,1.1 10.39844,0 3,-0.9 5.20078,-2.50039 6.80078,-4.90039 1.6,-2.2 2.50078,-4.89961 2.80078,-7.59961 0.3,-3.9 -0.90039,-7.70039 -3.90039,-10.90039 -1.3,-1.3 -2.79961,-2.39961 -4.59961,-3.09961 -1.6,-0.8 -3.60039,-1.30078 -5.40039,-1.30078 -3.9,-0.2 -7.90117,1.10078 -10.20117,3.80078 -1.7,1.9 -2.5,4.39883 -2.5,6.79883 -0.8,-1.6 -1.09844,-3.30039 -0.89844,-4.90039 0.2,-2.4 1.09922,-4.89961 2.19922,-7.09961 1.3,-2.4 3.10039,-4.6 5.40039,-6.5 2.4,-1.9 5,-3.49922 8,-4.19922 2.8,-0.9 6,-1.29961 9,-1.09961 3.5,0.3 6.59961,1.3 9.59961,3 3.3,1.4 6.30078,3.79961 8.80078,6.09961 5,5.4 6.9,11.60039 6.5,18.40039 -0.3,4.7 -1.70039,9.3 -3.90039,13.5 -1.9,3.9 -4.70117,7.69922 -8.20117,10.69922 -3.9,3.3 -8.49922,5.80039 -13.19922,7.40039 -5.7,1.9 -11.59961,2.99883 -17.59961,3.29883 -6.5,0.3 -12.60039,-0.29844 -18.90039,-1.39844 -6.8,-1.3 -13.50078,-3.50156 -19.80078,-6.10156 -7.1,-3 -14,-6.59922 -20.5,-10.69922 -6.9,-4.2 -13.69883,-9.10078 -19.79883,-14.30078 -1.1,-0.9 -1.99961,-1.69922 -3.09961,-2.69922 0.9,0.2 1.89883,0.19922 2.79883,0.19922 4.2,0 8.69961,-0.8 12.59961,-2 4.1,-1.4 7.9,-3.89883 11,-6.79883 3.3,-3.1 5.80156,-6.9 7.60156,-11 2.2,-5 3.79961,-10.70039 4.09961,-16.40039 0.5,-5.4 3.9e-4,-10.89922 -1.59961,-16.19922 -1.6,-5.7 -4.70078,-11.00117 -8.80078,-15.70117 -4.1,-4.9 -9.1,-9.09922 -15,-12.69922 -5.8,-3.5 -12.00039,-6.10039 -18.40039,-7.90039 -6.9,-1.9 -14.19922,-2.8 -21.19922,-3 -7.7,-0.2 -15.30078,0.60039 -22.80078,1.90039 -7.9,1.4 -15.6,3.6 -23,6.5 -6.5,2.5 -12.60039,5.7 -18.90039,8.5 -7.7,3.8 -15.29883,6.79883 -23.79883,8.29883 -4.6,0.8 -9.30078,0.90078 -13.80078,-0.19922 -3.8,-0.9 -6.89961,-2.49961 -10.09961,-4.59961 -2.7,-1.9 -5.00039,-4.20078 -6.90039,-6.80078 -1.9,-2.7 -3.59961,-5.5 -4.59961,-8.5 -0.8,-2.4 -1.30078,-4.90039 -1.30078,-7.40039 0,-2.2 0.60156,-4.2 1.60156,-6.5 1.1,-1.9 2.49922,-3.89844 4.19922,-5.39844 1.4,-1.3 3.5,-2.40078 5.5,-2.80078 1.9,-0.6 3.90078,-0.60078 5.80078,-0.30078 2.2,0.3 4.4,0.90039 6.5,1.90039 1.3,0.8 2.69883,1.7 3.79883,3 1.1,1.3 1.70117,2.50039 2.20117,3.90039 0,0.3 0.19883,0.60039 0.29883,0.90039 -2,-1.1 -4.60039,-1.59961 -6.90039,-1.59961 -2.5,0 -5.19961,0.59844 -7.09961,1.89844 -2.4,1.4 -3.89922,3.9 -4.69922,6.5 -0.6,2.7 -0.30117,5.50039 1.29883,7.90039 1.6,2.4 4.20156,3.90039 7.10156,4.90039 2.7,0.9 5.79922,1.09961 8.69922,0.59961 5.7,-0.9 9.80078,-4.59883 11.80078,-9.29883 1.1,-2.4 1.59961,-4.60156 1.59961,-7.10156 0.2,-2.4 -0.29961,-4.89922 -1.09961,-7.19922 -0.9,-2.7 -2.20117,-5.39961 -4.20117,-7.59961 -1.9,-2.2 -4.20039,-3.9 -6.90039,-5.5 -3.3,-1.7 -6.89922,-3 -10.69922,-3.5 -1.425,-0.1875 -2.82187,-0.30508 -4.20117,-0.32031 z m -23.59961,37.32031 c -1.3,5 6.30078,12 9.30078,15 7.6,6.8 17.60039,12.00039 27.90039,12.40039 -4.6,2.5 -9,4.99922 -13.5,7.69922 0,0 -0.20117,-0.10039 -0.20117,0.0996 -7.1,4.2 -15.29844,6.40039 -23.39844,6.40039 h -0.5 c -8.3,0 -16.50156,-2 -23.60156,-6 H 487 c -4.4,-3 -9,-5.30039 -13.5,-7.90039 2.1,0.7 5.09922,-0.40039 7.69922,-1.40039 1.6,-0.6 3.10039,-1.29844 3.90039,-1.39844 11.5,-4.1 22.99961,-12.60039 26.09961,-24.90039 z m 132.70898,2.38672 c 0.83575,-0.004 1.66719,10e-4 2.49219,0.0137 6.1,0.2 12.10039,0.9 17.90039,2.5 5.2,1.4 10.4,3.6 15,6.5 4.6,2.7 8.8,6.09961 12,10.09961 3.1,3.6 5.39961,7.59883 6.59961,11.79883 1.3,3.9 1.59883,8.30039 1.29883,12.40039 -0.3,4.4 -1.29883,9.00039 -3.29883,12.90039 -1.3,2.8 -2.80117,5.49922 -5.20117,7.69922 -1.9,1.9 -4.19844,3.50117 -6.89844,4.20117 -2.7,0.9 -5.40117,1.29883 -8.20117,1.29883 -2.5,0 -5.00039,-0.49844 -7.40039,-1.39844 -2.2,-1.1 -3.89922,-2.40156 -5.69922,-4.10156 -1.7,-1.9 -3.10039,-4.19961 -3.90039,-6.59961 -0.9,-2.5 -1.29883,-4.99961 -1.29883,-7.59961 0,-0.9 -7.8e-4,-1.69922 0.19922,-2.69922 0.5,0.9 1.09961,1.7 1.59961,2.5 5.5,6.5 16.70117,6.49844 22.20117,0.89844 3.1,-3.3 4.39883,-7.6 3.29883,-12 -0.8,-2.4 -2.00039,-4.69961 -3.90039,-6.59961 C 678.49922,256.19961 675.3,254.7 672,254 c -6.6,-1.7 -13.99922,-0.49922 -19.19922,3.80078 -2.7,2.2 -4.40117,4.9 -5.70117,8 -1.3,3.5 -1.69922,7.09922 -1.69922,10.69922 0,1.7 0.2,3.59922 0.5,5.19922 -3.3,-2.8 -6.49961,-6.29883 -7.59961,-9.79883 -1.7,-5 -4.6,-9.90117 -8,-14.20117 -3.3,-4.2 -7.40156,-8.19883 -12.10156,-11.29883 -5.5,-3.8 -11.59844,-6.49961 -18.39844,-7.59961 -1.3,-0.2 -2.50078,-0.30156 -3.80078,-0.60156 3.5,-1.6 6.3,-3.1 9.5,-4 6.6,-2.5 13.70078,-4.39883 20.80078,-5.79883 5.6875,-1.1375 11.75723,-1.58594 17.60742,-1.61328 z m -265.35547,0.2793 c 5.96368,0.015 11.94688,0.67031 17.54688,1.63281 7.1,1.3 14.20078,3.30078 20.80078,5.80078 3.1,1.3 6.1,2.50039 9,3.90039 -1.3,0.2 -2.50078,0.29961 -3.80078,0.59961 -6.6,1.3 -12.90039,3.89961 -18.40039,7.59961 -4.7,3.3 -8.99961,6.90078 -12.09961,11.30078 -3.5,4.4 -6.1,9.09922 -8,14.19922 -1.3,3.6 -4.19961,6.90078 -7.59961,9.80078 0.3,-1.7 0.5,-3.50117 0.5,-5.20117 0,-3.8 -0.49922,-7.39922 -1.69922,-10.69922 -1.3,-3.1 -3.10117,-5.8 -5.70117,-8 -5,-4.1 -12.29922,-5.70078 -19.19922,-3.80078 -3.3,0.8 -6.50117,2.40156 -8.70117,4.60156 -1.7,1.9 -3.09844,4.19961 -3.89844,6.59961 -1.3,4.4 0.19883,8.8 3.29883,12 5.7,5.8 16.70117,5.79961 22.20117,-0.90039 0.6,-0.8 1.29961,-1.6 1.59961,-2.5 0.2,0.9 0.19922,1.69922 0.19922,2.69922 0,2.5 -0.49883,5.20156 -1.29883,7.60156 -0.9,2.5 -2.20039,4.69961 -3.90039,6.59961 -1.4,1.7 -3.50117,3.09961 -5.70117,4.09961 -1.9,1.1 -4.39844,1.5 -6.89844,1.5 -2.8,0 -5.50117,-0.50078 -8.20117,-1.30078 -2.7,-0.9 -4.90039,-2.39922 -6.90039,-4.19922 -2.4,-2.2 -3.89922,-4.89922 -5.19922,-7.69922 -1.7,-4.1 -2.80078,-8.70039 -3.30078,-12.90039 -0.3,-4.1 0.20078,-8.50039 1.30078,-12.40039 1.3,-4.2 3.59961,-8.30078 6.59961,-11.80078 3.3,-3.9 7.4,-7.39961 12,-10.09961 4.6,-2.8 9.8,-4.9 15,-6.5 5.8,-1.6 12.00039,-2.4 17.90039,-2.5 0.85,-0.025 1.70078,-0.0354 2.55273,-0.0332 z"
   sodipodi:nodetypes="scccccccscccccccsccsccccccccccsccccccccscccccsscccccccccccccccccccccccccccccccccccccccccccccccccccccssccccsccccsccccccccccccccccccccccccscsccccccccccccccccccccccccccccsccccccccccccscccccccsccccccccccscccscccccccccccccccccccccccccsccccccccccccccccccccccccccccccccccccccccsccccccccccccccccsscccccsccsccscccccccsssscccssccccccssccccccccscccsccccccccsccccccccssccccccccsccccccccscccscccccccccscc"
   style="stroke-width:11.3386;stroke-miterlimit:4;stroke-dasharray:none" />
<path
   style="fill:none;stroke:#000000;stroke-width:9.4488189;stroke-linecap:butt;stroke-linejoin:miter;stroke-miterlimit:4;stroke-dasharray:none;stroke-opacity:1"
   d="m 180.89341,373.4105 c 0,0 57.39189,2.17944 108.24546,-27.84838"
   id="path859"
   sodipodi:nodetypes="cc" /><path
   style="fill:none;stroke:#000000;stroke-width:9.4488189;stroke-linecap:butt;stroke-linejoin:miter;stroke-opacity:1;stroke-miterlimit:4;stroke-dasharray:none"
   d="m 266.37584,278.96815 c 0,0 14.52959,-34.87101 52.30653,-15.01391"
   id="path861" /><path
   style="fill:none;stroke:#000000;stroke-width:9.4488189;stroke-linecap:butt;stroke-linejoin:miter;stroke-miterlimit:4;stroke-dasharray:none;stroke-opacity:1"
   d="m 837.17891,372.93292 c 0,0 -57.39189,2.17944 -108.24547,-27.84837"
   id="path859-9"
   sodipodi:nodetypes="cc" /><path
   style="fill:none;stroke:#000000;stroke-width:9.44882;stroke-linecap:butt;stroke-linejoin:miter;stroke-miterlimit:4;stroke-dasharray:none;stroke-opacity:1"
   d="m 754.09374,278.83305 c 0,0 -14.5296,-34.87101 -52.30654,-15.01391"
   id="path861-0" /></svg>
