<?xml version="1.0" encoding="UTF-8" standalone="no"?>
<svg
   xmlns:dc="http://purl.org/dc/elements/1.1/"
   xmlns:cc="http://creativecommons.org/ns#"
   xmlns:rdf="http://www.w3.org/1999/02/22-rdf-syntax-ns#"
   xmlns:svg="http://www.w3.org/2000/svg"
   xmlns="http://www.w3.org/2000/svg"
   xmlns:sodipodi="http://sodipodi.sourceforge.net/DTD/sodipodi-0.dtd"
   xmlns:inkscape="http://www.inkscape.org/namespaces/inkscape"
   width="28.500315mm"
   height="29.576513mm"
   version="1.1"
   id="svg835"
   sodipodi:docname="tag1.svg"
   viewBox="0 0 96.945947 100.60672"
   inkscape:version="1.0.1 (c497b03c, 2020-09-10)">
  <metadata
     id="metadata841">
    <rdf:RDF>
      <cc:Work
         rdf:about="">
        <dc:format>image/svg+xml</dc:format>
        <dc:type
           rdf:resource="http://purl.org/dc/dcmitype/StillImage" />
        <dc:title></dc:title>
      </cc:Work>
    </rdf:RDF>
  </metadata>
  <defs
     id="defs839" />
  <sodipodi:namedview
     pagecolor="#ffffff"
     bordercolor="#666666"
     borderopacity="1"
     objecttolerance="10"
     gridtolerance="10"
     guidetolerance="10"
     inkscape:pageopacity="0"
     inkscape:pageshadow="2"
     inkscape:window-width="1499"
     inkscape:window-height="936"
     id="namedview837"
     showgrid="false"
     fit-margin-top="0"
     fit-margin-left="0"
     fit-margin-right="0"
     fit-margin-bottom="0"
     units="mm"
     scale-x="0.9"
     inkscape:zoom="0.46208087"
     inkscape:cx="781.07092"
     inkscape:cy="-592.64881"
     inkscape:window-x="0"
     inkscape:window-y="38"
     inkscape:window-maximized="0"
     inkscape:current-layer="svg835" />
  <path
     d="m 45.814595,0.5261743 c -8.3328,0.42 -11.1412,10.7999997 -13.2284,13.0599997 -2.0873,2.26 -12.1982,7.23 -18.9749,16.71 -6.7767996,9.49 -6.7767996,25.76 -6.3249996,37.05 0.4518,11.29 -7.00042,23.06 -6.77678,24.62 0.22363,1.57 19.8340796,8.209996 46.8171796,8.139996 29.6552,-0.999996 48.9902,-9.459996 49.1162,-11.049996 0.127,-1.59 -8.0478,-12.85 -8.3032,-24.15 -0.2554,-11.3 -1.2725,-27.53 -8.6293,-36.58 -7.3568,-9.04 -17.8054,-13.41 -19.9831,-15.49 -2.1778,-2.08 -5.5881,-12.9399997 -13.7127,-12.3099997 z"
     stroke="#000000"
     stroke-width="1"
     fill="none"
     id="path833" />
</svg>
