<?xml version="1.0" encoding="UTF-8" standalone="no"?>
<svg
   xmlns:dc="http://purl.org/dc/elements/1.1/"
   xmlns:cc="http://creativecommons.org/ns#"
   xmlns:rdf="http://www.w3.org/1999/02/22-rdf-syntax-ns#"
   xmlns:svg="http://www.w3.org/2000/svg"
   xmlns="http://www.w3.org/2000/svg"
   xmlns:sodipodi="http://sodipodi.sourceforge.net/DTD/sodipodi-0.dtd"
   xmlns:inkscape="http://www.inkscape.org/namespaces/inkscape"
   width="28.383432mm"
   height="32.725254mm"
   version="1.1"
   id="svg835"
   sodipodi:docname="tag2.svg"
   viewBox="0 0 75.093177 86.5802"
   inkscape:version="1.0.1 (c497b03c, 2020-09-10)">
  <metadata
     id="metadata841">
    <rdf:RDF>
      <cc:Work
         rdf:about="">
        <dc:format>image/svg+xml</dc:format>
        <dc:type
           rdf:resource="http://purl.org/dc/dcmitype/StillImage" />
        <dc:title></dc:title>
      </cc:Work>
    </rdf:RDF>
  </metadata>
  <defs
     id="defs839" />
  <sodipodi:namedview
     pagecolor="#ffffff"
     bordercolor="#666666"
     borderopacity="1"
     objecttolerance="10"
     gridtolerance="10"
     guidetolerance="10"
     inkscape:pageopacity="0"
     inkscape:pageshadow="2"
     inkscape:window-width="982"
     inkscape:window-height="735"
     id="namedview837"
     showgrid="false"
     fit-margin-top="0"
     fit-margin-left="0"
     fit-margin-right="0"
     fit-margin-bottom="0"
     scale-x="0.7"
     units="mm"
     inkscape:zoom="0.46208087"
     inkscape:cx="647.31312"
     inkscape:cy="-597.9049"
     inkscape:window-x="0"
     inkscape:window-y="38"
     inkscape:window-maximized="0"
     inkscape:current-layer="svg835" />
  <path
     d="m 38.979088,86.050089 0.947,-0.04 0.94,-0.08 0.934,-0.09 0.927,-0.12 0.92,-0.14 0.912,-0.16 0.905,-0.19 0.896,-0.2 0.888,-0.23 0.879,-0.25 0.87,-0.27 0.861,-0.29 0.85,-0.32 0.842,-0.33 0.831,-0.35 0.82,-0.37 0.81,-0.39 0.799,-0.41 0.787,-0.43 0.776,-0.44 0.764,-0.47 0.751,-0.48 0.739,-0.5 0.727,-0.51 0.713,-0.54 0.699,-0.55 0.687,-0.56 0.672,-0.59 0.658,-0.59 0.959,-0.93 0.926,-0.96 0.598,-0.66 0.582,-0.67 0.566,-0.68 0.55,-0.71 0.534,-0.71 0.516,-0.72 0.499,-0.74 0.482,-0.75 0.464,-0.77 0.446,-0.77 0.428,-0.79 0.409,-0.8 0.39,-0.81 0.371,-0.82 0.352,-0.83 0.331,-0.84 0.312,-0.85 0.291,-0.87 0.271,-0.87 0.25,-0.87 0.228,-0.89 0.207,-0.9 0.185,-0.9 0.163,-0.91 0.14,-0.92 0.118,-0.93 0.095,-0.94 0.071,-0.94 0.049,-0.94 0.027,-1.44 -0.027,-1.43 -0.049,-0.94 -0.071,-0.95 -0.095,-0.93 -0.118,-0.93 -0.14,-0.92 -0.163,-0.91 -0.185,-0.9 -0.207,-0.9 -0.228,-0.89 -0.25,-0.88 -0.271,-0.87 -0.291,-0.86 -0.312,-0.85 -0.331,-0.84 -0.352,-0.83 -0.371,-0.82 -0.39,-0.81 -0.409,-0.8 -0.428,-0.79 -0.446,-0.77 -0.464,-0.77 -0.482,-0.75 -0.499,-0.74 -0.516,-0.72 -0.534,-0.72 -0.55,-0.7 -0.566,-0.68 -0.582,-0.67 -0.598,-0.66 -0.926,-0.96 -0.959,-0.93 -0.658,-0.59 -0.672,-0.59 -0.687,-0.56 -0.699,-0.55 -0.713,-0.54 -0.727,-0.51 -0.739,-0.5 -0.751,-0.48 -0.764,-0.47 -0.776,-0.44 -0.787,-0.43 -0.799,-0.41 -0.81,-0.39 -0.82,-0.37 -0.831,-0.35 -0.842,-0.34 -0.85,-0.31 -0.861,-0.29 -0.87,-0.27 -0.879,-0.25 -0.888,-0.23 -0.896,-0.2 -0.905,-0.19 -0.912,-0.16 -0.92,-0.14 -0.927,-0.12 -0.267,-0.03 -0.517,-1.4 -0.013,-0.53 -0.04,-0.5200002 -0.066,-0.52 -0.09,-0.51 -0.115,-0.49 -0.139,-0.49 -0.162,-0.48 -0.184,-0.47 -0.207,-0.46 -0.227,-0.44 -0.248,-0.43 -0.268,-0.42 -0.288,-0.41 -0.306,-0.38 -0.323,-0.38 -0.342,-0.36 -0.358,-0.34 -0.374,-0.32 -0.389,-0.31 -0.404,-0.28 -0.418,-0.27 -0.431,-0.25 -0.445,-0.23 -0.457,-0.2 -0.467,-0.19 -0.479,-0.15999998 -0.489,-0.14 -0.499,-0.12 -0.507,-0.09 -0.516,-0.06 -0.523,-0.04 -0.53,-0.01 -0.531,0.01 -0.523,0.04 -0.516,0.06 -0.507,0.09 -0.499,0.12 -0.489,0.14 -0.479,0.15999998 -0.468,0.19 -0.456,0.2 -0.444,0.23 -0.432,0.25 -0.418,0.27 -0.404,0.28 -0.39,0.31 -0.373,0.32 -0.358,0.34 -0.341,0.36 -0.325,0.38 -0.306,0.38 -0.286,0.41 -0.269,0.42 -0.248,0.43 -0.227,0.44 -0.207,0.46 -0.184,0.47 -0.162,0.48 -0.139,0.49 -0.115,0.49 -0.091,0.51 -0.065,0.52 -0.04,0.5200002 -0.013,0.53 -0.22,5.5 -0.691,0.38 -0.776,0.44 -0.764,0.47 -0.752,0.48 -0.738,0.5 -0.726,0.51 -0.714,0.54 -0.7,0.55 -0.686,0.56 -0.672,0.59 -0.658,0.59 -0.959,0.93 -0.926,0.96 -0.5979995,0.66 -0.582,0.67 -0.567,0.68 -0.549,0.7 -0.533,0.72 -0.517,0.72 -0.5,0.74 -0.481,0.75 -0.464,0.77 -0.447,0.77 -0.427,0.79 -0.409,0.8 -0.39,0.81 -0.372,0.82 -0.351,0.83 -0.332,0.84 -0.311,0.85 -0.292,0.86 -0.27,0.87 -0.249,0.88 -0.229,0.89 -0.207,0.9 -0.185,0.9 -0.163,0.91 -0.141,0.92 -0.117,0.93 -0.095,0.93 -0.072,0.95 -0.048,0.94 -0.027,1.43 0.027,1.44 0.048,0.94 0.072,0.94 0.095,0.94 0.117,0.93 0.141,0.92 0.163,0.91 0.185,0.9 0.207,0.9 0.229,0.89 0.249,0.87 0.27,0.87 0.292,0.87 0.311,0.85 0.332,0.84 0.351,0.83 0.372,0.82 0.39,0.81 0.409,0.8 0.427,0.79 0.447,0.77 0.464,0.77 0.481,0.75 0.5,0.74 0.517,0.72 0.533,0.71 0.549,0.71 0.567,0.68 0.582,0.67 0.5979995,0.66 0.926,0.96 0.959,0.93 0.658,0.59 0.672,0.59 0.686,0.56 0.7,0.55 0.714,0.54 0.726,0.51 0.738,0.5 0.752,0.48 0.764,0.47 0.776,0.44 0.787,0.43 0.799,0.41 0.81,0.39 0.82,0.37 0.831,0.35 0.841,0.33 0.851,0.32 0.861,0.29 0.87,0.27 0.879,0.25 0.888,0.23 0.896,0.2 0.904,0.19 0.912,0.16 0.921,0.14 0.926,0.12 0.935,0.09 0.94,0.08 0.947,0.04 1.432,0.03 z"
     stroke="#000000"
     stroke-width="1"
     fill="none"
     id="path833" />
</svg>
