<svg width="2534.81px" height="1547.15px">
<path d="M2322.74 654.29 L2328.38 654.007 L2333.98 653.58 L2339.54 653.016 L2345.06 652.313 L2350.54 651.474 L2355.97 650.507 L2361.35 649.403 L2366.69 648.171 L2371.98 646.81 L2377.21 645.325 L2382.39 643.715 L2387.52 641.98 L2392.58 640.124 L2397.6 638.148 L2402.54 636.058 L2407.43 633.847 L2412.25 631.522 L2417.01 629.088 L2421.7 626.541 L2426.32 623.884 L2430.86 621.121 L2435.34 618.252 L2439.74 615.278 L2444.07 612.201 L2448.31 609.026 L2452.48 605.753 L2456.56 602.382 L2460.57 598.912 L2464.49 595.352 L2470.2 589.842 L2475.71 584.127 L2479.27 580.211 L2482.74 576.209 L2486.11 572.123 L2489.39 567.954 L2492.56 563.706 L2495.64 559.382 L2498.61 554.983 L2501.48 550.508 L2504.24 545.957 L2506.9 541.339 L2509.44 536.652 L2511.88 531.894 L2514.21 527.071 L2516.41 522.188 L2518.51 517.237 L2520.48 512.229 L2522.34 507.161 L2524.07 502.036 L2525.68 496.854 L2527.17 491.619 L2528.53 486.335 L2529.76 480.999 L2530.86 475.613 L2531.83 470.182 L2532.67 464.705 L2533.37 459.183 L2533.94 453.62 L2534.36 448.019 L2534.65 442.38 L2534.81 433.853 L2534.65 425.326 L2534.36 419.683 L2533.94 414.082 L2533.37 408.523 L2532.67 403.001 L2531.83 397.524 L2530.86 392.093 L2529.76 386.707 L2528.53 381.37 L2527.17 376.083 L2525.68 370.848 L2524.07 365.67 L2522.34 360.545 L2520.48 355.477 L2518.51 350.465 L2516.41 345.518 L2514.21 340.631 L2511.88 335.808 L2509.44 331.054 L2506.9 326.363 L2504.24 321.745 L2501.48 317.198 L2498.61 312.723 L2495.64 308.32 L2492.56 303.996 L2489.39 299.748 L2486.11 295.583 L2482.74 291.497 L2479.27 287.494 L2475.71 283.575 L2470.2 277.864 L2464.49 272.35 L2460.57 268.79 L2456.56 265.324 L2452.48 261.952 L2448.31 258.676 L2444.07 255.501 L2439.74 252.424 L2435.34 249.454 L2430.86 246.585 L2426.32 243.818 L2421.7 241.165 L2417.01 238.618 L2412.25 236.18 L2407.43 233.855 L2402.54 231.648 L2397.6 229.554 L2392.58 227.581 L2387.52 225.726 L2382.39 223.991 L2377.21 222.377 L2371.98 220.892 L2366.69 219.531 L2361.35 218.299 L2355.97 217.199 L2350.54 216.228 L2345.06 215.392 L2339.54 214.689 L2337.95 214.527 L2334.87 206.178 L2334.79 203.022 L2334.56 199.904 L2334.16 196.835 L2333.63 193.811 L2332.94 190.844 L2332.12 187.93 L2331.15 185.081 L2330.05 182.295 L2328.82 179.574 L2327.47 176.928 L2325.99 174.358 L2324.39 171.871 L2322.68 169.464 L2320.86 167.147 L2318.93 164.921 L2316.9 162.789 L2314.77 160.756 L2312.54 158.828 L2310.22 157.006 L2307.82 155.294 L2305.33 153.699 L2302.76 152.221 L2300.11 150.865 L2297.39 149.636 L2294.61 148.54 L2291.76 147.573 L2288.84 146.749 L2285.88 146.061 L2282.85 145.524 L2279.78 145.131 L2276.67 144.897 L2273.51 144.814 L2270.35 144.897 L2267.24 145.131 L2264.16 145.524 L2261.14 146.061 L2258.17 146.749 L2255.26 147.573 L2252.41 148.54 L2249.62 149.636 L2246.91 150.865 L2244.26 152.221 L2241.69 153.699 L2239.2 155.294 L2236.8 157.006 L2234.48 158.828 L2232.25 160.756 L2230.12 162.789 L2228.09 164.921 L2226.16 167.147 L2224.34 169.464 L2222.63 171.871 L2221.03 174.358 L2219.55 176.928 L2218.2 179.574 L2216.97 182.295 L2215.87 185.081 L2214.91 187.93 L2214.08 190.844 L2213.39 193.811 L2212.85 196.835 L2212.46 199.904 L2212.23 203.022 L2212.15 206.178 L2210.84 238.928 L2206.72 241.165 L2202.1 243.818 L2197.55 246.585 L2193.08 249.454 L2188.68 252.424 L2184.36 255.501 L2180.11 258.676 L2175.94 261.952 L2171.85 265.324 L2167.85 268.79 L2163.93 272.35 L2158.22 277.864 L2152.71 283.575 L2149.15 287.494 L2145.68 291.497 L2142.31 295.583 L2139.03 299.748 L2135.86 303.996 L2132.78 308.32 L2129.81 312.723 L2126.94 317.198 L2124.18 321.745 L2121.52 326.363 L2118.97 331.054 L2116.54 335.808 L2114.21 340.631 L2112 345.518 L2109.91 350.465 L2107.94 355.477 L2106.08 360.545 L2104.35 365.67 L2102.74 370.848 L2101.25 376.083 L2099.89 381.37 L2098.66 386.707 L2097.55 392.093 L2096.59 397.524 L2095.75 403.001 L2095.05 408.523 L2094.48 414.082 L2094.05 419.683 L2093.77 425.326 L2093.61 433.853 L2093.77 442.38 L2094.05 448.019 L2094.48 453.62 L2095.05 459.183 L2095.75 464.705 L2096.59 470.182 L2097.55 475.613 L2098.66 480.999 L2099.89 486.335 L2101.25 491.619 L2102.74 496.854 L2104.35 502.036 L2106.08 507.161 L2107.94 512.229 L2109.91 517.237 L2112 522.188 L2114.21 527.071 L2116.54 531.894 L2118.97 536.652 L2121.52 541.339 L2124.18 545.957 L2126.94 550.508 L2129.81 554.983 L2132.78 559.382 L2135.86 563.706 L2139.03 567.954 L2142.31 572.123 L2145.68 576.209 L2149.15 580.211 L2152.71 584.127 L2158.22 589.842 L2163.93 595.352 L2167.85 598.912 L2171.85 602.382 L2175.94 605.753 L2180.11 609.026 L2184.36 612.201 L2188.68 615.278 L2193.08 618.252 L2197.55 621.121 L2202.1 623.884 L2206.72 626.541 L2211.41 629.088 L2216.17 631.522 L2220.99 633.847 L2225.87 636.058 L2230.82 638.148 L2235.83 640.124 L2240.9 641.98 L2246.03 643.715 L2251.21 645.325 L2256.44 646.81 L2261.73 648.171 L2267.06 649.403 L2272.45 650.507 L2277.88 651.474 L2283.36 652.313 L2288.88 653.016 L2294.44 653.58 L2300.04 654.007 L2305.68 654.29 L2314.21 654.453 L2322.74 654.29 Z " stroke="black" stroke-width="1" fill="none" />

<path d="" stroke="black" stroke-width="1" fill="none" />

<path d="M1579.81 0.0173034 C1578.23 -0.00959916, 1576.67 -0.00529475, 1575.2 0.03136 " stroke="black" stroke-width="1" fill="none" />

<path d="M1721.35 751.356 C1560.68 751.738, 1443.89 712.103, 1442.57 702.876 C1441.22 693.46, 1485.61 623.513, 1482.92 556.257 C1480.23 489, 1480.23 392.151, 1520.59 335.656 C1560.94 279.16, 1617.44 253.603, 1633.58 236.116 C1642.29 226.674, 1636.27 159.444, 1715.63 158.099 C1717.22 158.072, 1718.77 158.076, 1720.24 158.113 C1720.29 159.441, 1720.33 160.791, 1720.27 158.977 " stroke="black" stroke-width="1" fill="none" />

<path d="M1721.35 751.356 C1721.3 749.735, 1721.34 750.916, 1721.38 752.075 C1724.18 752.036, 1728.27 751.904, 1732.25 751.706 C1894.3 743.624, 2013.07 695.025, 2013.83 685.543 C2014.58 676.062, 1965.9 609.028, 1964.38 541.735 C1962.86 474.442, 1956.81 377.782, 1913 323.921 C1869.19 270.06, 1811.21 248.085, 1794 231.642 C1785.27 223.296, 1786.35 163.174, 1720.27 158.977 " stroke="black" stroke-width="1" fill="none" />

</svg>
