solid OpenSCAD_Model
  facet normal 0.258805 -0.96593 0
    outer loop
      vertex 78 -41.5 0
      vertex 79.5 -41.0981 22.51
      vertex 78 -41.5 22.51
    endloop
  endfacet
  facet normal 0.258805 -0.96593 0
    outer loop
      vertex 79.5 -41.0981 22.51
      vertex 78 -41.5 0
      vertex 79.5 -41.0981 0
    endloop
  endfacet
  facet normal -0.707107 -0.707107 0
    outer loop
      vertex -79.5 -41.0981 0
      vertex -80.5981 -40 22.51
      vertex -80.5981 -40 0
    endloop
  endfacet
  facet normal -0.707107 -0.707107 0
    outer loop
      vertex -80.5981 -40 22.51
      vertex -79.5 -41.0981 0
      vertex -79.5 -41.0981 22.51
    endloop
  endfacet
  facet normal -0.96593 0.258805 0
    outer loop
      vertex -81 38.5 0
      vertex -80.5981 40 22.51
      vertex -80.5981 40 0
    endloop
  endfacet
  facet normal -0.96593 0.258805 0
    outer loop
      vertex -80.5981 40 22.51
      vertex -81 38.5 0
      vertex -81 38.5 22.51
    endloop
  endfacet
  facet normal -0.258805 0.96593 0
    outer loop
      vertex -78 41.5 0
      vertex -79.5 41.0981 22.51
      vertex -78 41.5 22.51
    endloop
  endfacet
  facet normal -0.258805 0.96593 0
    outer loop
      vertex -79.5 41.0981 22.51
      vertex -78 41.5 0
      vertex -79.5 41.0981 0
    endloop
  endfacet
  facet normal 0.96593 -0.258805 0
    outer loop
      vertex 80.5981 -40 22.51
      vertex 81 -38.5 0
      vertex 81 -38.5 22.51
    endloop
  endfacet
  facet normal 0.96593 -0.258805 0
    outer loop
      vertex 81 -38.5 0
      vertex 80.5981 -40 22.51
      vertex 80.5981 -40 0
    endloop
  endfacet
  facet normal -0.707107 0.707107 0
    outer loop
      vertex -80.5981 40 0
      vertex -79.5 41.0981 22.51
      vertex -79.5 41.0981 0
    endloop
  endfacet
  facet normal -0.707107 0.707107 0
    outer loop
      vertex -79.5 41.0981 22.51
      vertex -80.5981 40 0
      vertex -80.5981 40 22.51
    endloop
  endfacet
  facet normal 0.707107 -0.707107 0
    outer loop
      vertex 79.5 -41.0981 22.51
      vertex 80.5981 -40 0
      vertex 80.5981 -40 22.51
    endloop
  endfacet
  facet normal 0.707107 -0.707107 0
    outer loop
      vertex 80.5981 -40 0
      vertex 79.5 -41.0981 22.51
      vertex 79.5 -41.0981 0
    endloop
  endfacet
  facet normal 0 1 -0
    outer loop
      vertex 78 41.5 0
      vertex -78 41.5 22.51
      vertex 78 41.5 22.51
    endloop
  endfacet
  facet normal 0 1 0
    outer loop
      vertex -78 41.5 22.51
      vertex 78 41.5 0
      vertex -78 41.5 0
    endloop
  endfacet
  facet normal -0.96593 -0.258805 0
    outer loop
      vertex -80.5981 -40 0
      vertex -81 -38.5 22.51
      vertex -81 -38.5 0
    endloop
  endfacet
  facet normal -0.96593 -0.258805 0
    outer loop
      vertex -81 -38.5 22.51
      vertex -80.5981 -40 0
      vertex -80.5981 -40 22.51
    endloop
  endfacet
  facet normal 0.258805 0.96593 -0
    outer loop
      vertex 79.5 41.0981 0
      vertex 78 41.5 22.51
      vertex 79.5 41.0981 22.51
    endloop
  endfacet
  facet normal 0.258805 0.96593 0
    outer loop
      vertex 78 41.5 22.51
      vertex 79.5 41.0981 0
      vertex 78 41.5 0
    endloop
  endfacet
  facet normal 0.96593 0.258805 0
    outer loop
      vertex 81 38.5 22.51
      vertex 80.5981 40 0
      vertex 80.5981 40 22.51
    endloop
  endfacet
  facet normal 0.96593 0.258805 0
    outer loop
      vertex 80.5981 40 0
      vertex 81 38.5 22.51
      vertex 81 38.5 0
    endloop
  endfacet
  facet normal 1 0 0
    outer loop
      vertex 81 7.85317 17.5729
      vertex 81 38.5 22.51
      vertex 81 7.85317 19.4271
    endloop
  endfacet
  facet normal 1 0 0
    outer loop
      vertex 81 38.5 22.51
      vertex 81 6.76336 20.9271
      vertex 81 7.85317 19.4271
    endloop
  endfacet
  facet normal 1 0 0
    outer loop
      vertex 81 38.5 22.51
      vertex 81 5 21.5
      vertex 81 6.76336 20.9271
    endloop
  endfacet
  facet normal 1 0 0
    outer loop
      vertex 81 2.14683 19.4271
      vertex 81 -2.14683 19.4271
      vertex 81 2.14683 17.5729
    endloop
  endfacet
  facet normal 1 0 0
    outer loop
      vertex 81 3.23664 20.9271
      vertex 81 -2.14683 19.4271
      vertex 81 2.14683 19.4271
    endloop
  endfacet
  facet normal 1 0 0
    outer loop
      vertex 81 -3.23664 20.9271
      vertex 81 3.23664 20.9271
      vertex 81 5 21.5
    endloop
  endfacet
  facet normal 1 0 0
    outer loop
      vertex 81 3.23664 20.9271
      vertex 81 -3.23664 20.9271
      vertex 81 -2.14683 19.4271
    endloop
  endfacet
  facet normal 1 0 0
    outer loop
      vertex 81 5 21.5
      vertex 81 -5 21.5
      vertex 81 -3.23664 20.9271
    endloop
  endfacet
  facet normal 1 0 0
    outer loop
      vertex 81 38.5 22.51
      vertex 81 -5 21.5
      vertex 81 5 21.5
    endloop
  endfacet
  facet normal 1 0 0
    outer loop
      vertex 81 -7.85317 19.4271
      vertex 81 -38.5 22.51
      vertex 81 -7.85317 17.5729
    endloop
  endfacet
  facet normal 1 0 0
    outer loop
      vertex 81 -6.76336 20.9271
      vertex 81 -38.5 22.51
      vertex 81 -7.85317 19.4271
    endloop
  endfacet
  facet normal 1 0 0
    outer loop
      vertex 81 -5 21.5
      vertex 81 -38.5 22.51
      vertex 81 -6.76336 20.9271
    endloop
  endfacet
  facet normal 1 -0 0
    outer loop
      vertex 81 -38.5 22.51
      vertex 81 -5 21.5
      vertex 81 38.5 22.51
    endloop
  endfacet
  facet normal 1 0 0
    outer loop
      vertex 81 38.5 22.51
      vertex 81 7.85317 17.5729
      vertex 81 38.5 0
    endloop
  endfacet
  facet normal 1 -0 0
    outer loop
      vertex 81 6.76336 16.0729
      vertex 81 38.5 0
      vertex 81 7.85317 17.5729
    endloop
  endfacet
  facet normal 1 -0 0
    outer loop
      vertex 81 5 15.5
      vertex 81 38.5 0
      vertex 81 6.76336 16.0729
    endloop
  endfacet
  facet normal 1 0 0
    outer loop
      vertex 81 -5 15.5
      vertex 81 5 15.5
      vertex 81 3.23664 16.0729
    endloop
  endfacet
  facet normal 1 0 0
    outer loop
      vertex 81 -2.14683 17.5729
      vertex 81 2.14683 17.5729
      vertex 81 -2.14683 19.4271
    endloop
  endfacet
  facet normal 1 0 0
    outer loop
      vertex 81 2.14683 17.5729
      vertex 81 -2.14683 17.5729
      vertex 81 3.23664 16.0729
    endloop
  endfacet
  facet normal 1 0 0
    outer loop
      vertex 81 -3.23664 16.0729
      vertex 81 3.23664 16.0729
      vertex 81 -2.14683 17.5729
    endloop
  endfacet
  facet normal 1 0 0
    outer loop
      vertex 81 -5 15.5
      vertex 81 3.23664 16.0729
      vertex 81 -3.23664 16.0729
    endloop
  endfacet
  facet normal 1 0 0
    outer loop
      vertex 81 5 15.5
      vertex 81 -5 15.5
      vertex 81 38.5 0
    endloop
  endfacet
  facet normal 1 0 0
    outer loop
      vertex 81 -38.5 0
      vertex 81 -5 15.5
      vertex 81 -6.76336 16.0729
    endloop
  endfacet
  facet normal 1 0 0
    outer loop
      vertex 81 -38.5 0
      vertex 81 -7.85317 17.5729
      vertex 81 -38.5 22.51
    endloop
  endfacet
  facet normal 1 0 0
    outer loop
      vertex 81 -7.85317 17.5729
      vertex 81 -38.5 0
      vertex 81 -6.76336 16.0729
    endloop
  endfacet
  facet normal 1 0 0
    outer loop
      vertex 81 -5 15.5
      vertex 81 -38.5 0
      vertex 81 38.5 0
    endloop
  endfacet
  facet normal -0.258805 -0.96593 0
    outer loop
      vertex -79.5 -41.0981 0
      vertex -78 -41.5 22.51
      vertex -79.5 -41.0981 22.51
    endloop
  endfacet
  facet normal -0.258805 -0.96593 -0
    outer loop
      vertex -78 -41.5 22.51
      vertex -79.5 -41.0981 0
      vertex -78 -41.5 0
    endloop
  endfacet
  facet normal 0.707107 0.707107 0
    outer loop
      vertex 80.5981 40 22.51
      vertex 79.5 41.0981 0
      vertex 79.5 41.0981 22.51
    endloop
  endfacet
  facet normal 0.707107 0.707107 0
    outer loop
      vertex 79.5 41.0981 0
      vertex 80.5981 40 22.51
      vertex 80.5981 40 0
    endloop
  endfacet
  facet normal 0 -1 0
    outer loop
      vertex -78 -41.5 0
      vertex 78 -41.5 22.51
      vertex -78 -41.5 22.51
    endloop
  endfacet
  facet normal 0 -1 -0
    outer loop
      vertex 78 -41.5 22.51
      vertex -78 -41.5 0
      vertex 78 -41.5 0
    endloop
  endfacet
  facet normal -1 0 0
    outer loop
      vertex -81 38.5 0
      vertex -81 14.8532 17.5729
      vertex -81 38.5 22.51
    endloop
  endfacet
  facet normal -1 0 0
    outer loop
      vertex -81 38.5 0
      vertex -81 13.7634 16.0729
      vertex -81 14.8532 17.5729
    endloop
  endfacet
  facet normal -1 0 0
    outer loop
      vertex -81 38.5 0
      vertex -81 12 15.5
      vertex -81 13.7634 16.0729
    endloop
  endfacet
  facet normal -1 0 0
    outer loop
      vertex -81 -12 15.5
      vertex -81 12 15.5
      vertex -81 38.5 0
    endloop
  endfacet
  facet normal -1 0 0
    outer loop
      vertex -81 9.14683 17.5729
      vertex -81 -9.14683 17.5729
      vertex -81 9.14683 19.4271
    endloop
  endfacet
  facet normal -1 0 0
    outer loop
      vertex -81 10.2366 16.0729
      vertex -81 -9.14683 17.5729
      vertex -81 9.14683 17.5729
    endloop
  endfacet
  facet normal -1 0 0
    outer loop
      vertex -81 12 15.5
      vertex -81 -12 15.5
      vertex -81 10.2366 16.0729
    endloop
  endfacet
  facet normal -1 0 0
    outer loop
      vertex -81 10.2366 16.0729
      vertex -81 -10.2366 16.0729
      vertex -81 -9.14683 17.5729
    endloop
  endfacet
  facet normal -1 -0 0
    outer loop
      vertex -81 10.2366 16.0729
      vertex -81 -12 15.5
      vertex -81 -10.2366 16.0729
    endloop
  endfacet
  facet normal -1 0 0
    outer loop
      vertex -81 -38.5 22.51
      vertex -81 -14.8532 17.5729
      vertex -81 -38.5 0
    endloop
  endfacet
  facet normal -1 -0 0
    outer loop
      vertex -81 -13.7634 16.0729
      vertex -81 -38.5 0
      vertex -81 -14.8532 17.5729
    endloop
  endfacet
  facet normal -1 -0 0
    outer loop
      vertex -81 -12 15.5
      vertex -81 -38.5 0
      vertex -81 -13.7634 16.0729
    endloop
  endfacet
  facet normal -1 0 0
    outer loop
      vertex -81 -38.5 0
      vertex -81 -12 15.5
      vertex -81 38.5 0
    endloop
  endfacet
  facet normal -1 0 0
    outer loop
      vertex -81 14.8532 19.4271
      vertex -81 38.5 22.51
      vertex -81 14.8532 17.5729
    endloop
  endfacet
  facet normal -1 0 0
    outer loop
      vertex -81 13.7634 20.9271
      vertex -81 38.5 22.51
      vertex -81 14.8532 19.4271
    endloop
  endfacet
  facet normal -1 0 0
    outer loop
      vertex -81 12 21.5
      vertex -81 38.5 22.51
      vertex -81 13.7634 20.9271
    endloop
  endfacet
  facet normal -1 0 0
    outer loop
      vertex -81 -9.14683 19.4271
      vertex -81 9.14683 19.4271
      vertex -81 -9.14683 17.5729
    endloop
  endfacet
  facet normal -1 0 0
    outer loop
      vertex -81 9.14683 19.4271
      vertex -81 -9.14683 19.4271
      vertex -81 10.2366 20.9271
    endloop
  endfacet
  facet normal -1 0 0
    outer loop
      vertex -81 -10.2366 20.9271
      vertex -81 10.2366 20.9271
      vertex -81 -9.14683 19.4271
    endloop
  endfacet
  facet normal -1 0 0
    outer loop
      vertex -81 10.2366 20.9271
      vertex -81 -10.2366 20.9271
      vertex -81 12 21.5
    endloop
  endfacet
  facet normal -1 0 0
    outer loop
      vertex -81 -12 21.5
      vertex -81 12 21.5
      vertex -81 -10.2366 20.9271
    endloop
  endfacet
  facet normal -1 0 0
    outer loop
      vertex -81 12 21.5
      vertex -81 -12 21.5
      vertex -81 38.5 22.51
    endloop
  endfacet
  facet normal -1 0 0
    outer loop
      vertex -81 -14.8532 17.5729
      vertex -81 -38.5 22.51
      vertex -81 -14.8532 19.4271
    endloop
  endfacet
  facet normal -1 0 0
    outer loop
      vertex -81 -12 21.5
      vertex -81 -38.5 22.51
      vertex -81 38.5 22.51
    endloop
  endfacet
  facet normal -1 0 0
    outer loop
      vertex -81 -13.7634 20.9271
      vertex -81 -38.5 22.51
      vertex -81 -12 21.5
    endloop
  endfacet
  facet normal -1 0 0
    outer loop
      vertex -81 -14.8532 19.4271
      vertex -81 -38.5 22.51
      vertex -81 -13.7634 20.9271
    endloop
  endfacet
  facet normal 0 0 -1
    outer loop
      vertex -60 21 0
      vertex 60 24 0
      vertex 60 21 0
    endloop
  endfacet
  facet normal -0 0 -1
    outer loop
      vertex 60 24 0
      vertex -60 21 0
      vertex -60 24 0
    endloop
  endfacet
  facet normal 0 0 -1
    outer loop
      vertex -60 16 0
      vertex 60 19 0
      vertex 60 16 0
    endloop
  endfacet
  facet normal -0 0 -1
    outer loop
      vertex 60 19 0
      vertex -60 16 0
      vertex -60 19 0
    endloop
  endfacet
  facet normal 0 0 -1
    outer loop
      vertex -60 11 0
      vertex 60 14 0
      vertex 60 11 0
    endloop
  endfacet
  facet normal -0 0 -1
    outer loop
      vertex 60 14 0
      vertex -60 11 0
      vertex -60 14 0
    endloop
  endfacet
  facet normal 0 0 -1
    outer loop
      vertex -60 6 0
      vertex 60 9 0
      vertex 60 6 0
    endloop
  endfacet
  facet normal -0 0 -1
    outer loop
      vertex 60 9 0
      vertex -60 6 0
      vertex -60 9 0
    endloop
  endfacet
  facet normal 0 0 -1
    outer loop
      vertex -60 1 0
      vertex 60 4 0
      vertex 60 1 0
    endloop
  endfacet
  facet normal -0 0 -1
    outer loop
      vertex 60 4 0
      vertex -60 1 0
      vertex -60 4 0
    endloop
  endfacet
  facet normal 0 0 -1
    outer loop
      vertex -60 -4 0
      vertex 60 -1 0
      vertex 60 -4 0
    endloop
  endfacet
  facet normal -0 0 -1
    outer loop
      vertex 60 -1 0
      vertex -60 -4 0
      vertex -60 -1 0
    endloop
  endfacet
  facet normal 0 0 -1
    outer loop
      vertex -60 -9 0
      vertex 60 -6 0
      vertex 60 -9 0
    endloop
  endfacet
  facet normal -0 0 -1
    outer loop
      vertex 60 -6 0
      vertex -60 -9 0
      vertex -60 -6 0
    endloop
  endfacet
  facet normal 0 0 -1
    outer loop
      vertex -60 -14 0
      vertex 60 -11 0
      vertex 60 -14 0
    endloop
  endfacet
  facet normal -0 0 -1
    outer loop
      vertex 60 -11 0
      vertex -60 -14 0
      vertex -60 -11 0
    endloop
  endfacet
  facet normal 0 0 -1
    outer loop
      vertex -60 -19 0
      vertex 60 -16 0
      vertex 60 -19 0
    endloop
  endfacet
  facet normal -0 0 -1
    outer loop
      vertex 60 -16 0
      vertex -60 -19 0
      vertex -60 -16 0
    endloop
  endfacet
  facet normal 0 0 -1
    outer loop
      vertex -60 -24 0
      vertex 60 -21 0
      vertex 60 -24 0
    endloop
  endfacet
  facet normal -0 0 -1
    outer loop
      vertex 60 -21 0
      vertex -60 -24 0
      vertex -60 -21 0
    endloop
  endfacet
  facet normal 0 0 -1
    outer loop
      vertex 78 -41.5 0
      vertex 81 -38.5 0
      vertex 80.5981 -40 0
    endloop
  endfacet
  facet normal 0 0 -1
    outer loop
      vertex 81 -38.5 0
      vertex 60 -1 0
      vertex 81 38.5 0
    endloop
  endfacet
  facet normal 0 0 -1
    outer loop
      vertex 78 -41.5 0
      vertex 80.5981 -40 0
      vertex 79.5 -41.0981 0
    endloop
  endfacet
  facet normal 0 0 -1
    outer loop
      vertex 60 1 0
      vertex 81 38.5 0
      vertex 60 -1 0
    endloop
  endfacet
  facet normal -0 0 -1
    outer loop
      vertex 81 -38.5 0
      vertex 78 -41.5 0
      vertex 60 -26 0
    endloop
  endfacet
  facet normal 0 0 -1
    outer loop
      vertex 60 4 0
      vertex 81 38.5 0
      vertex 60 1 0
    endloop
  endfacet
  facet normal 0 0 -1
    outer loop
      vertex 81 -38.5 0
      vertex 60 -26 0
      vertex 60 -24 0
    endloop
  endfacet
  facet normal 0 0 -1
    outer loop
      vertex 78 -41.5 0
      vertex -60 -26 0
      vertex 60 -26 0
    endloop
  endfacet
  facet normal 0 0 -1
    outer loop
      vertex -81 -38.5 0
      vertex -60 -24 0
      vertex -60 -26 0
    endloop
  endfacet
  facet normal -0 0 -1
    outer loop
      vertex -60 -24 0
      vertex -81 -38.5 0
      vertex -60 -21 0
    endloop
  endfacet
  facet normal -0 0 -1
    outer loop
      vertex -60 -21 0
      vertex -81 -38.5 0
      vertex -60 -19 0
    endloop
  endfacet
  facet normal -0 0 -1
    outer loop
      vertex -60 -19 0
      vertex -81 -38.5 0
      vertex -60 -16 0
    endloop
  endfacet
  facet normal -0 0 -1
    outer loop
      vertex -60 -16 0
      vertex -81 -38.5 0
      vertex -60 -14 0
    endloop
  endfacet
  facet normal -0 0 -1
    outer loop
      vertex -60 -14 0
      vertex -81 -38.5 0
      vertex -60 -11 0
    endloop
  endfacet
  facet normal -0 0 -1
    outer loop
      vertex -60 -11 0
      vertex -81 -38.5 0
      vertex -60 -9 0
    endloop
  endfacet
  facet normal -0 0 -1
    outer loop
      vertex -60 -9 0
      vertex -81 -38.5 0
      vertex -60 -6 0
    endloop
  endfacet
  facet normal -0 0 -1
    outer loop
      vertex -60 -6 0
      vertex -81 -38.5 0
      vertex -60 -4 0
    endloop
  endfacet
  facet normal -0 0 -1
    outer loop
      vertex -60 -4 0
      vertex -81 -38.5 0
      vertex -60 -1 0
    endloop
  endfacet
  facet normal -0 0 -1
    outer loop
      vertex -60 -1 0
      vertex -81 -38.5 0
      vertex -60 1 0
    endloop
  endfacet
  facet normal 0 0 -1
    outer loop
      vertex -81 38.5 0
      vertex -60 1 0
      vertex -81 -38.5 0
    endloop
  endfacet
  facet normal 0 0 -1
    outer loop
      vertex -60 1 0
      vertex -81 38.5 0
      vertex -60 4 0
    endloop
  endfacet
  facet normal 0 0 -1
    outer loop
      vertex -60 4 0
      vertex -81 38.5 0
      vertex -60 6 0
    endloop
  endfacet
  facet normal 0 0 -1
    outer loop
      vertex -60 6 0
      vertex -81 38.5 0
      vertex -60 9 0
    endloop
  endfacet
  facet normal 0 0 -1
    outer loop
      vertex -60 9 0
      vertex -81 38.5 0
      vertex -60 11 0
    endloop
  endfacet
  facet normal 0 0 -1
    outer loop
      vertex -60 11 0
      vertex -81 38.5 0
      vertex -60 14 0
    endloop
  endfacet
  facet normal 0 0 -1
    outer loop
      vertex -60 14 0
      vertex -81 38.5 0
      vertex -60 16 0
    endloop
  endfacet
  facet normal 0 0 -1
    outer loop
      vertex -60 16 0
      vertex -81 38.5 0
      vertex -60 19 0
    endloop
  endfacet
  facet normal 0 0 -1
    outer loop
      vertex -60 19 0
      vertex -81 38.5 0
      vertex -60 21 0
    endloop
  endfacet
  facet normal 0 0 -1
    outer loop
      vertex -81 -38.5 0
      vertex -60 -26 0
      vertex -78 -41.5 0
    endloop
  endfacet
  facet normal 0 0 -1
    outer loop
      vertex -78 -41.5 0
      vertex -60 -26 0
      vertex 78 -41.5 0
    endloop
  endfacet
  facet normal 0 0 -1
    outer loop
      vertex 81 -38.5 0
      vertex 60 -24 0
      vertex 60 -21 0
    endloop
  endfacet
  facet normal 0 0 -1
    outer loop
      vertex 81 -38.5 0
      vertex 60 -21 0
      vertex 60 -19 0
    endloop
  endfacet
  facet normal 0 0 -1
    outer loop
      vertex 81 -38.5 0
      vertex 60 -19 0
      vertex 60 -16 0
    endloop
  endfacet
  facet normal 0 0 -1
    outer loop
      vertex 81 -38.5 0
      vertex 60 -16 0
      vertex 60 -14 0
    endloop
  endfacet
  facet normal 0 0 -1
    outer loop
      vertex 81 -38.5 0
      vertex 60 -14 0
      vertex 60 -11 0
    endloop
  endfacet
  facet normal 0 0 -1
    outer loop
      vertex 81 -38.5 0
      vertex 60 -11 0
      vertex 60 -9 0
    endloop
  endfacet
  facet normal 0 0 -1
    outer loop
      vertex 81 -38.5 0
      vertex 60 -9 0
      vertex 60 -6 0
    endloop
  endfacet
  facet normal 0 0 -1
    outer loop
      vertex 81 -38.5 0
      vertex 60 -6 0
      vertex 60 -4 0
    endloop
  endfacet
  facet normal 0 0 -1
    outer loop
      vertex 81 -38.5 0
      vertex 60 -4 0
      vertex 60 -1 0
    endloop
  endfacet
  facet normal 0 0 -1
    outer loop
      vertex 60 6 0
      vertex 81 38.5 0
      vertex 60 4 0
    endloop
  endfacet
  facet normal 0 0 -1
    outer loop
      vertex 60 9 0
      vertex 81 38.5 0
      vertex 60 6 0
    endloop
  endfacet
  facet normal 0 0 -1
    outer loop
      vertex 60 11 0
      vertex 81 38.5 0
      vertex 60 9 0
    endloop
  endfacet
  facet normal 0 0 -1
    outer loop
      vertex 60 14 0
      vertex 81 38.5 0
      vertex 60 11 0
    endloop
  endfacet
  facet normal 0 0 -1
    outer loop
      vertex 60 16 0
      vertex 81 38.5 0
      vertex 60 14 0
    endloop
  endfacet
  facet normal 0 0 -1
    outer loop
      vertex 60 19 0
      vertex 81 38.5 0
      vertex 60 16 0
    endloop
  endfacet
  facet normal 0 0 -1
    outer loop
      vertex 60 21 0
      vertex 81 38.5 0
      vertex 60 19 0
    endloop
  endfacet
  facet normal 0 0 -1
    outer loop
      vertex 60 24 0
      vertex 81 38.5 0
      vertex 60 21 0
    endloop
  endfacet
  facet normal 0 0 -1
    outer loop
      vertex 60 26 0
      vertex 81 38.5 0
      vertex 60 24 0
    endloop
  endfacet
  facet normal 0 -0 -1
    outer loop
      vertex 78 41.5 0
      vertex 81 38.5 0
      vertex 60 26 0
    endloop
  endfacet
  facet normal 0 0 -1
    outer loop
      vertex 81 38.5 0
      vertex 78 41.5 0
      vertex 80.5981 40 0
    endloop
  endfacet
  facet normal 0 0 -1
    outer loop
      vertex 80.5981 40 0
      vertex 78 41.5 0
      vertex 79.5 41.0981 0
    endloop
  endfacet
  facet normal 0 0 -1
    outer loop
      vertex -60 26 0
      vertex 78 41.5 0
      vertex 60 26 0
    endloop
  endfacet
  facet normal 0 0 -1
    outer loop
      vertex -60 26 0
      vertex -78 41.5 0
      vertex 78 41.5 0
    endloop
  endfacet
  facet normal 0 0 -1
    outer loop
      vertex -60 21 0
      vertex -81 38.5 0
      vertex -60 24 0
    endloop
  endfacet
  facet normal 0 0 -1
    outer loop
      vertex -81 -38.5 0
      vertex -78 -41.5 0
      vertex -79.5 -41.0981 0
    endloop
  endfacet
  facet normal 0 0 -1
    outer loop
      vertex -60 24 0
      vertex -81 38.5 0
      vertex -60 26 0
    endloop
  endfacet
  facet normal 0 0 -1
    outer loop
      vertex -81 -38.5 0
      vertex -79.5 -41.0981 0
      vertex -80.5981 -40 0
    endloop
  endfacet
  facet normal 0 0 -1
    outer loop
      vertex -60 26 0
      vertex -81 38.5 0
      vertex -78 41.5 0
    endloop
  endfacet
  facet normal 0 0 -1
    outer loop
      vertex -78 41.5 0
      vertex -81 38.5 0
      vertex -79.5 41.0981 0
    endloop
  endfacet
  facet normal 0 0 -1
    outer loop
      vertex -79.5 41.0981 0
      vertex -81 38.5 0
      vertex -80.5981 40 0
    endloop
  endfacet
  facet normal -1 0 0
    outer loop
      vertex 78 38.5 3
      vertex 78 7.85317 17.5729
      vertex 78 38.5 24.505
    endloop
  endfacet
  facet normal -1 0 0
    outer loop
      vertex 78 38.5 3
      vertex 78 6.76336 16.0729
      vertex 78 7.85317 17.5729
    endloop
  endfacet
  facet normal -1 0 0
    outer loop
      vertex 78 38.5 3
      vertex 78 5 15.5
      vertex 78 6.76336 16.0729
    endloop
  endfacet
  facet normal -1 0 0
    outer loop
      vertex 78 -5 15.5
      vertex 78 5 15.5
      vertex 78 38.5 3
    endloop
  endfacet
  facet normal -1 0 0
    outer loop
      vertex 78 2.14683 17.5729
      vertex 78 -2.14683 17.5729
      vertex 78 2.14683 19.4271
    endloop
  endfacet
  facet normal -1 0 0
    outer loop
      vertex 78 3.23664 16.0729
      vertex 78 -2.14683 17.5729
      vertex 78 2.14683 17.5729
    endloop
  endfacet
  facet normal -1 0 0
    outer loop
      vertex 78 5 15.5
      vertex 78 -5 15.5
      vertex 78 3.23664 16.0729
    endloop
  endfacet
  facet normal -1 0 0
    outer loop
      vertex 78 3.23664 16.0729
      vertex 78 -3.23664 16.0729
      vertex 78 -2.14683 17.5729
    endloop
  endfacet
  facet normal -1 -0 0
    outer loop
      vertex 78 3.23664 16.0729
      vertex 78 -5 15.5
      vertex 78 -3.23664 16.0729
    endloop
  endfacet
  facet normal -1 0 0
    outer loop
      vertex 78 -38.5 24.505
      vertex 78 -7.85317 17.5729
      vertex 78 -38.5 3
    endloop
  endfacet
  facet normal -1 -0 0
    outer loop
      vertex 78 -6.76336 16.0729
      vertex 78 -38.5 3
      vertex 78 -7.85317 17.5729
    endloop
  endfacet
  facet normal -1 -0 0
    outer loop
      vertex 78 -5 15.5
      vertex 78 -38.5 3
      vertex 78 -6.76336 16.0729
    endloop
  endfacet
  facet normal -1 0 0
    outer loop
      vertex 78 -38.5 3
      vertex 78 -5 15.5
      vertex 78 38.5 3
    endloop
  endfacet
  facet normal -1 0 0
    outer loop
      vertex 78 7.85317 19.4271
      vertex 78 38.5 24.505
      vertex 78 7.85317 17.5729
    endloop
  endfacet
  facet normal -1 0 0
    outer loop
      vertex 78 6.76336 20.9271
      vertex 78 38.5 24.505
      vertex 78 7.85317 19.4271
    endloop
  endfacet
  facet normal -1 0 0
    outer loop
      vertex 78 5 21.5
      vertex 78 38.5 24.505
      vertex 78 6.76336 20.9271
    endloop
  endfacet
  facet normal -1 0 0
    outer loop
      vertex 78 -2.14683 19.4271
      vertex 78 2.14683 19.4271
      vertex 78 -2.14683 17.5729
    endloop
  endfacet
  facet normal -1 0 0
    outer loop
      vertex 78 2.14683 19.4271
      vertex 78 -2.14683 19.4271
      vertex 78 3.23664 20.9271
    endloop
  endfacet
  facet normal -1 0 0
    outer loop
      vertex 78 -3.23664 20.9271
      vertex 78 3.23664 20.9271
      vertex 78 -2.14683 19.4271
    endloop
  endfacet
  facet normal -1 0 0
    outer loop
      vertex 78 3.23664 20.9271
      vertex 78 -3.23664 20.9271
      vertex 78 5 21.5
    endloop
  endfacet
  facet normal -1 0 0
    outer loop
      vertex 78 -5 21.5
      vertex 78 5 21.5
      vertex 78 -3.23664 20.9271
    endloop
  endfacet
  facet normal -1 0 0
    outer loop
      vertex 78 5 21.5
      vertex 78 -5 21.5
      vertex 78 38.5 24.505
    endloop
  endfacet
  facet normal -1 0 0
    outer loop
      vertex 78 -7.85317 17.5729
      vertex 78 -38.5 24.505
      vertex 78 -7.85317 19.4271
    endloop
  endfacet
  facet normal -1 0 0
    outer loop
      vertex 78 -5 21.5
      vertex 78 -38.5 24.505
      vertex 78 38.5 24.505
    endloop
  endfacet
  facet normal -1 0 0
    outer loop
      vertex 78 -6.76336 20.9271
      vertex 78 -38.5 24.505
      vertex 78 -5 21.5
    endloop
  endfacet
  facet normal -1 0 0
    outer loop
      vertex 78 -7.85317 19.4271
      vertex 78 -38.5 24.505
      vertex 78 -6.76336 20.9271
    endloop
  endfacet
  facet normal -0 0 1
    outer loop
      vertex -60 -21 3
      vertex 60 -24 3
      vertex 60 -21 3
    endloop
  endfacet
  facet normal 0 0 1
    outer loop
      vertex 60 -24 3
      vertex -60 -21 3
      vertex -60 -24 3
    endloop
  endfacet
  facet normal -0 0 1
    outer loop
      vertex -60 -16 3
      vertex 60 -19 3
      vertex 60 -16 3
    endloop
  endfacet
  facet normal 0 0 1
    outer loop
      vertex 60 -19 3
      vertex -60 -16 3
      vertex -60 -19 3
    endloop
  endfacet
  facet normal -0 0 1
    outer loop
      vertex -60 -11 3
      vertex 60 -14 3
      vertex 60 -11 3
    endloop
  endfacet
  facet normal 0 0 1
    outer loop
      vertex 60 -14 3
      vertex -60 -11 3
      vertex -60 -14 3
    endloop
  endfacet
  facet normal -0 0 1
    outer loop
      vertex -60 -6 3
      vertex 60 -9 3
      vertex 60 -6 3
    endloop
  endfacet
  facet normal 0 0 1
    outer loop
      vertex 60 -9 3
      vertex -60 -6 3
      vertex -60 -9 3
    endloop
  endfacet
  facet normal -0 0 1
    outer loop
      vertex -60 -1 3
      vertex 60 -4 3
      vertex 60 -1 3
    endloop
  endfacet
  facet normal 0 0 1
    outer loop
      vertex 60 -4 3
      vertex -60 -1 3
      vertex -60 -4 3
    endloop
  endfacet
  facet normal -0 0 1
    outer loop
      vertex -60 4 3
      vertex 60 1 3
      vertex 60 4 3
    endloop
  endfacet
  facet normal 0 0 1
    outer loop
      vertex 60 1 3
      vertex -60 4 3
      vertex -60 1 3
    endloop
  endfacet
  facet normal -0 0 1
    outer loop
      vertex -60 9 3
      vertex 60 6 3
      vertex 60 9 3
    endloop
  endfacet
  facet normal 0 0 1
    outer loop
      vertex 60 6 3
      vertex -60 9 3
      vertex -60 6 3
    endloop
  endfacet
  facet normal -0 0 1
    outer loop
      vertex -60 14 3
      vertex 60 11 3
      vertex 60 14 3
    endloop
  endfacet
  facet normal 0 0 1
    outer loop
      vertex 60 11 3
      vertex -60 14 3
      vertex -60 11 3
    endloop
  endfacet
  facet normal -0 0 1
    outer loop
      vertex -60 19 3
      vertex 60 16 3
      vertex 60 19 3
    endloop
  endfacet
  facet normal 0 0 1
    outer loop
      vertex 60 16 3
      vertex -60 19 3
      vertex -60 16 3
    endloop
  endfacet
  facet normal -0 0 1
    outer loop
      vertex -60 24 3
      vertex 60 21 3
      vertex 60 24 3
    endloop
  endfacet
  facet normal 0 0 1
    outer loop
      vertex 60 21 3
      vertex -60 24 3
      vertex -60 21 3
    endloop
  endfacet
  facet normal 0 0 1
    outer loop
      vertex 60 24 3
      vertex 78 38.5 3
      vertex 60 26 3
    endloop
  endfacet
  facet normal 0 0 1
    outer loop
      vertex 78 38.5 3
      vertex -60 26 3
      vertex 60 26 3
    endloop
  endfacet
  facet normal 0 0 1
    outer loop
      vertex -78 38.5 3
      vertex -60 24 3
      vertex -60 26 3
    endloop
  endfacet
  facet normal 0 0 1
    outer loop
      vertex -60 24 3
      vertex -78 38.5 3
      vertex -60 21 3
    endloop
  endfacet
  facet normal 0 0 1
    outer loop
      vertex -60 21 3
      vertex -78 38.5 3
      vertex -60 19 3
    endloop
  endfacet
  facet normal 0 0 1
    outer loop
      vertex -60 19 3
      vertex -78 38.5 3
      vertex -60 16 3
    endloop
  endfacet
  facet normal 0 0 1
    outer loop
      vertex -60 16 3
      vertex -78 38.5 3
      vertex -60 14 3
    endloop
  endfacet
  facet normal 0 0 1
    outer loop
      vertex -60 14 3
      vertex -78 38.5 3
      vertex -60 11 3
    endloop
  endfacet
  facet normal 0 0 1
    outer loop
      vertex -60 11 3
      vertex -78 38.5 3
      vertex -60 9 3
    endloop
  endfacet
  facet normal 0 0 1
    outer loop
      vertex -60 9 3
      vertex -78 38.5 3
      vertex -60 6 3
    endloop
  endfacet
  facet normal 0 0 1
    outer loop
      vertex -60 6 3
      vertex -78 38.5 3
      vertex -60 4 3
    endloop
  endfacet
  facet normal 0 0 1
    outer loop
      vertex -60 4 3
      vertex -78 38.5 3
      vertex -60 1 3
    endloop
  endfacet
  facet normal 0 0 1
    outer loop
      vertex -60 1 3
      vertex -78 38.5 3
      vertex -60 -1 3
    endloop
  endfacet
  facet normal 0 0 1
    outer loop
      vertex -78 -38.5 3
      vertex -60 -1 3
      vertex -78 38.5 3
    endloop
  endfacet
  facet normal 0 0 1
    outer loop
      vertex -60 -1 3
      vertex -78 -38.5 3
      vertex -60 -4 3
    endloop
  endfacet
  facet normal 0 0 1
    outer loop
      vertex -60 -4 3
      vertex -78 -38.5 3
      vertex -60 -6 3
    endloop
  endfacet
  facet normal 0 0 1
    outer loop
      vertex -60 -6 3
      vertex -78 -38.5 3
      vertex -60 -9 3
    endloop
  endfacet
  facet normal 0 0 1
    outer loop
      vertex -60 -9 3
      vertex -78 -38.5 3
      vertex -60 -11 3
    endloop
  endfacet
  facet normal 0 0 1
    outer loop
      vertex -60 -11 3
      vertex -78 -38.5 3
      vertex -60 -14 3
    endloop
  endfacet
  facet normal 0 0 1
    outer loop
      vertex -60 -14 3
      vertex -78 -38.5 3
      vertex -60 -16 3
    endloop
  endfacet
  facet normal 0 0 1
    outer loop
      vertex -60 -16 3
      vertex -78 -38.5 3
      vertex -60 -19 3
    endloop
  endfacet
  facet normal 0 0 1
    outer loop
      vertex -60 -19 3
      vertex -78 -38.5 3
      vertex -60 -21 3
    endloop
  endfacet
  facet normal 0 0 1
    outer loop
      vertex -60 -21 3
      vertex -78 -38.5 3
      vertex -60 -24 3
    endloop
  endfacet
  facet normal -0 0 1
    outer loop
      vertex -78 38.5 3
      vertex -60 26 3
      vertex 78 38.5 3
    endloop
  endfacet
  facet normal 0 0 1
    outer loop
      vertex 60 21 3
      vertex 78 38.5 3
      vertex 60 24 3
    endloop
  endfacet
  facet normal 0 0 1
    outer loop
      vertex 60 19 3
      vertex 78 38.5 3
      vertex 60 21 3
    endloop
  endfacet
  facet normal 0 0 1
    outer loop
      vertex 60 16 3
      vertex 78 38.5 3
      vertex 60 19 3
    endloop
  endfacet
  facet normal 0 0 1
    outer loop
      vertex 60 14 3
      vertex 78 38.5 3
      vertex 60 16 3
    endloop
  endfacet
  facet normal 0 0 1
    outer loop
      vertex 60 11 3
      vertex 78 38.5 3
      vertex 60 14 3
    endloop
  endfacet
  facet normal 0 0 1
    outer loop
      vertex 60 9 3
      vertex 78 38.5 3
      vertex 60 11 3
    endloop
  endfacet
  facet normal 0 0 1
    outer loop
      vertex 60 6 3
      vertex 78 38.5 3
      vertex 60 9 3
    endloop
  endfacet
  facet normal 0 0 1
    outer loop
      vertex 60 4 3
      vertex 78 38.5 3
      vertex 60 6 3
    endloop
  endfacet
  facet normal 0 0 1
    outer loop
      vertex 60 1 3
      vertex 78 38.5 3
      vertex 60 4 3
    endloop
  endfacet
  facet normal 0 0 1
    outer loop
      vertex 78 38.5 3
      vertex 60 1 3
      vertex 78 -38.5 3
    endloop
  endfacet
  facet normal -0 0 1
    outer loop
      vertex 60 -1 3
      vertex 78 -38.5 3
      vertex 60 1 3
    endloop
  endfacet
  facet normal -0 0 1
    outer loop
      vertex 60 -4 3
      vertex 78 -38.5 3
      vertex 60 -1 3
    endloop
  endfacet
  facet normal -0 0 1
    outer loop
      vertex 60 -6 3
      vertex 78 -38.5 3
      vertex 60 -4 3
    endloop
  endfacet
  facet normal -0 0 1
    outer loop
      vertex 60 -9 3
      vertex 78 -38.5 3
      vertex 60 -6 3
    endloop
  endfacet
  facet normal -0 0 1
    outer loop
      vertex 60 -11 3
      vertex 78 -38.5 3
      vertex 60 -9 3
    endloop
  endfacet
  facet normal -0 0 1
    outer loop
      vertex 60 -14 3
      vertex 78 -38.5 3
      vertex 60 -11 3
    endloop
  endfacet
  facet normal -0 0 1
    outer loop
      vertex 60 -16 3
      vertex 78 -38.5 3
      vertex 60 -14 3
    endloop
  endfacet
  facet normal -0 0 1
    outer loop
      vertex 60 -19 3
      vertex 78 -38.5 3
      vertex 60 -16 3
    endloop
  endfacet
  facet normal -0 0 1
    outer loop
      vertex 60 -21 3
      vertex 78 -38.5 3
      vertex 60 -19 3
    endloop
  endfacet
  facet normal -0 0 1
    outer loop
      vertex 60 -24 3
      vertex 78 -38.5 3
      vertex 60 -21 3
    endloop
  endfacet
  facet normal -0 0 1
    outer loop
      vertex 60 -26 3
      vertex 78 -38.5 3
      vertex 60 -24 3
    endloop
  endfacet
  facet normal -0 0 1
    outer loop
      vertex -60 -26 3
      vertex 78 -38.5 3
      vertex 60 -26 3
    endloop
  endfacet
  facet normal 0 0 1
    outer loop
      vertex -60 -26 3
      vertex -78 -38.5 3
      vertex 78 -38.5 3
    endloop
  endfacet
  facet normal 0 0 1
    outer loop
      vertex -60 -24 3
      vertex -78 -38.5 3
      vertex -60 -26 3
    endloop
  endfacet
  facet normal 1 0 0
    outer loop
      vertex -78 14.8532 17.5729
      vertex -78 38.5 24.505
      vertex -78 14.8532 19.4271
    endloop
  endfacet
  facet normal 1 0 0
    outer loop
      vertex -78 38.5 24.505
      vertex -78 13.7634 20.9271
      vertex -78 14.8532 19.4271
    endloop
  endfacet
  facet normal 1 0 0
    outer loop
      vertex -78 38.5 24.505
      vertex -78 12 21.5
      vertex -78 13.7634 20.9271
    endloop
  endfacet
  facet normal 1 0 0
    outer loop
      vertex -78 9.14683 19.4271
      vertex -78 -9.14683 19.4271
      vertex -78 9.14683 17.5729
    endloop
  endfacet
  facet normal 1 0 0
    outer loop
      vertex -78 10.2366 20.9271
      vertex -78 -9.14683 19.4271
      vertex -78 9.14683 19.4271
    endloop
  endfacet
  facet normal 1 0 0
    outer loop
      vertex -78 -10.2366 20.9271
      vertex -78 10.2366 20.9271
      vertex -78 12 21.5
    endloop
  endfacet
  facet normal 1 0 0
    outer loop
      vertex -78 -12 21.5
      vertex -78 12 21.5
      vertex -78 38.5 24.505
    endloop
  endfacet
  facet normal 1 0 0
    outer loop
      vertex -78 10.2366 20.9271
      vertex -78 -10.2366 20.9271
      vertex -78 -9.14683 19.4271
    endloop
  endfacet
  facet normal 1 0 0
    outer loop
      vertex -78 12 21.5
      vertex -78 -12 21.5
      vertex -78 -10.2366 20.9271
    endloop
  endfacet
  facet normal 1 0 0
    outer loop
      vertex -78 -14.8532 19.4271
      vertex -78 -38.5 24.505
      vertex -78 -14.8532 17.5729
    endloop
  endfacet
  facet normal 1 0 0
    outer loop
      vertex -78 -13.7634 20.9271
      vertex -78 -38.5 24.505
      vertex -78 -14.8532 19.4271
    endloop
  endfacet
  facet normal 1 0 0
    outer loop
      vertex -78 -12 21.5
      vertex -78 -38.5 24.505
      vertex -78 -13.7634 20.9271
    endloop
  endfacet
  facet normal 1 -0 0
    outer loop
      vertex -78 -38.5 24.505
      vertex -78 -12 21.5
      vertex -78 38.5 24.505
    endloop
  endfacet
  facet normal 1 0 0
    outer loop
      vertex -78 38.5 24.505
      vertex -78 14.8532 17.5729
      vertex -78 38.5 3
    endloop
  endfacet
  facet normal 1 -0 0
    outer loop
      vertex -78 13.7634 16.0729
      vertex -78 38.5 3
      vertex -78 14.8532 17.5729
    endloop
  endfacet
  facet normal 1 -0 0
    outer loop
      vertex -78 12 15.5
      vertex -78 38.5 3
      vertex -78 13.7634 16.0729
    endloop
  endfacet
  facet normal 1 0 0
    outer loop
      vertex -78 -12 15.5
      vertex -78 12 15.5
      vertex -78 10.2366 16.0729
    endloop
  endfacet
  facet normal 1 0 0
    outer loop
      vertex -78 -9.14683 17.5729
      vertex -78 9.14683 17.5729
      vertex -78 -9.14683 19.4271
    endloop
  endfacet
  facet normal 1 0 0
    outer loop
      vertex -78 9.14683 17.5729
      vertex -78 -9.14683 17.5729
      vertex -78 10.2366 16.0729
    endloop
  endfacet
  facet normal 1 0 0
    outer loop
      vertex -78 -10.2366 16.0729
      vertex -78 10.2366 16.0729
      vertex -78 -9.14683 17.5729
    endloop
  endfacet
  facet normal 1 0 0
    outer loop
      vertex -78 -12 15.5
      vertex -78 10.2366 16.0729
      vertex -78 -10.2366 16.0729
    endloop
  endfacet
  facet normal 1 0 0
    outer loop
      vertex -78 12 15.5
      vertex -78 -12 15.5
      vertex -78 38.5 3
    endloop
  endfacet
  facet normal 1 0 0
    outer loop
      vertex -78 -38.5 3
      vertex -78 -14.8532 17.5729
      vertex -78 -38.5 24.505
    endloop
  endfacet
  facet normal 1 0 0
    outer loop
      vertex -78 -12 15.5
      vertex -78 -38.5 3
      vertex -78 38.5 3
    endloop
  endfacet
  facet normal 1 0 0
    outer loop
      vertex -78 -13.7634 16.0729
      vertex -78 -38.5 3
      vertex -78 -12 15.5
    endloop
  endfacet
  facet normal 1 0 0
    outer loop
      vertex -78 -14.8532 17.5729
      vertex -78 -38.5 3
      vertex -78 -13.7634 16.0729
    endloop
  endfacet
  facet normal 0 1 -0
    outer loop
      vertex 78 -38.5 3
      vertex -78 -38.5 24.505
      vertex 78 -38.5 24.505
    endloop
  endfacet
  facet normal 0 1 0
    outer loop
      vertex -78 -38.5 24.505
      vertex 78 -38.5 3
      vertex -78 -38.5 3
    endloop
  endfacet
  facet normal 0 -1 0
    outer loop
      vertex -78 38.5 3
      vertex 78 38.5 24.505
      vertex -78 38.5 24.505
    endloop
  endfacet
  facet normal 0 -1 -0
    outer loop
      vertex 78 38.5 24.505
      vertex -78 38.5 3
      vertex 78 38.5 3
    endloop
  endfacet
  facet normal 0 0.308986 -0.951067
    outer loop
      vertex -81 10.2366 20.9271
      vertex -78 12 21.5
      vertex -78 10.2366 20.9271
    endloop
  endfacet
  facet normal 0 0.308986 -0.951067
    outer loop
      vertex -78 12 21.5
      vertex -81 10.2366 20.9271
      vertex -81 12 21.5
    endloop
  endfacet
  facet normal -0 0.308986 0.951067
    outer loop
      vertex -81 12 15.5
      vertex -78 10.2366 16.0729
      vertex -78 12 15.5
    endloop
  endfacet
  facet normal 0 0.308986 0.951067
    outer loop
      vertex -78 10.2366 16.0729
      vertex -81 12 15.5
      vertex -81 10.2366 16.0729
    endloop
  endfacet
  facet normal 0 1 -0
    outer loop
      vertex -78 9.14683 17.5729
      vertex -81 9.14683 19.4271
      vertex -78 9.14683 19.4271
    endloop
  endfacet
  facet normal 0 1 0
    outer loop
      vertex -81 9.14683 19.4271
      vertex -78 9.14683 17.5729
      vertex -81 9.14683 17.5729
    endloop
  endfacet
  facet normal 0 0.809028 -0.58777
    outer loop
      vertex -78 9.14683 19.4271
      vertex -81 10.2366 20.9271
      vertex -78 10.2366 20.9271
    endloop
  endfacet
  facet normal 0 0.809028 -0.58777
    outer loop
      vertex -81 10.2366 20.9271
      vertex -78 9.14683 19.4271
      vertex -81 9.14683 19.4271
    endloop
  endfacet
  facet normal 0 -0.809021 0.58778
    outer loop
      vertex -81 13.7634 16.0729
      vertex -78 14.8532 17.5729
      vertex -81 14.8532 17.5729
    endloop
  endfacet
  facet normal 0 -0.809021 0.58778
    outer loop
      vertex -78 14.8532 17.5729
      vertex -81 13.7634 16.0729
      vertex -78 13.7634 16.0729
    endloop
  endfacet
  facet normal 0 -1 0
    outer loop
      vertex -81 14.8532 17.5729
      vertex -78 14.8532 19.4271
      vertex -81 14.8532 19.4271
    endloop
  endfacet
  facet normal 0 -1 -0
    outer loop
      vertex -78 14.8532 19.4271
      vertex -81 14.8532 17.5729
      vertex -78 14.8532 17.5729
    endloop
  endfacet
  facet normal 0 -0.308986 -0.951067
    outer loop
      vertex -81 12 21.5
      vertex -78 13.7634 20.9271
      vertex -78 12 21.5
    endloop
  endfacet
  facet normal -0 -0.308986 -0.951067
    outer loop
      vertex -78 13.7634 20.9271
      vertex -81 12 21.5
      vertex -81 13.7634 20.9271
    endloop
  endfacet
  facet normal 0 -0.809021 -0.58778
    outer loop
      vertex -81 14.8532 19.4271
      vertex -78 13.7634 20.9271
      vertex -81 13.7634 20.9271
    endloop
  endfacet
  facet normal 0 -0.809021 -0.58778
    outer loop
      vertex -78 13.7634 20.9271
      vertex -81 14.8532 19.4271
      vertex -78 14.8532 19.4271
    endloop
  endfacet
  facet normal 0 -0.308986 0.951067
    outer loop
      vertex -81 13.7634 16.0729
      vertex -78 12 15.5
      vertex -78 13.7634 16.0729
    endloop
  endfacet
  facet normal 0 -0.308986 0.951067
    outer loop
      vertex -78 12 15.5
      vertex -81 13.7634 16.0729
      vertex -81 12 15.5
    endloop
  endfacet
  facet normal 0 0.809028 0.58777
    outer loop
      vertex -78 10.2366 16.0729
      vertex -81 9.14683 17.5729
      vertex -78 9.14683 17.5729
    endloop
  endfacet
  facet normal 0 0.809028 0.58777
    outer loop
      vertex -81 9.14683 17.5729
      vertex -78 10.2366 16.0729
      vertex -81 10.2366 16.0729
    endloop
  endfacet
  facet normal 0 0.308986 -0.951067
    outer loop
      vertex -81 -13.7634 20.9271
      vertex -78 -12 21.5
      vertex -78 -13.7634 20.9271
    endloop
  endfacet
  facet normal 0 0.308986 -0.951067
    outer loop
      vertex -78 -12 21.5
      vertex -81 -13.7634 20.9271
      vertex -81 -12 21.5
    endloop
  endfacet
  facet normal -0 0.308986 0.951067
    outer loop
      vertex -81 -12 15.5
      vertex -78 -13.7634 16.0729
      vertex -78 -12 15.5
    endloop
  endfacet
  facet normal 0 0.308986 0.951067
    outer loop
      vertex -78 -13.7634 16.0729
      vertex -81 -12 15.5
      vertex -81 -13.7634 16.0729
    endloop
  endfacet
  facet normal 0 1 -0
    outer loop
      vertex -78 -14.8532 17.5729
      vertex -81 -14.8532 19.4271
      vertex -78 -14.8532 19.4271
    endloop
  endfacet
  facet normal 0 1 0
    outer loop
      vertex -81 -14.8532 19.4271
      vertex -78 -14.8532 17.5729
      vertex -81 -14.8532 17.5729
    endloop
  endfacet
  facet normal 0 0.809021 -0.58778
    outer loop
      vertex -78 -14.8532 19.4271
      vertex -81 -13.7634 20.9271
      vertex -78 -13.7634 20.9271
    endloop
  endfacet
  facet normal 0 0.809021 -0.58778
    outer loop
      vertex -81 -13.7634 20.9271
      vertex -78 -14.8532 19.4271
      vertex -81 -14.8532 19.4271
    endloop
  endfacet
  facet normal 0 -0.809028 0.58777
    outer loop
      vertex -81 -10.2366 16.0729
      vertex -78 -9.14683 17.5729
      vertex -81 -9.14683 17.5729
    endloop
  endfacet
  facet normal 0 -0.809028 0.58777
    outer loop
      vertex -78 -9.14683 17.5729
      vertex -81 -10.2366 16.0729
      vertex -78 -10.2366 16.0729
    endloop
  endfacet
  facet normal 0 -1 0
    outer loop
      vertex -81 -9.14683 17.5729
      vertex -78 -9.14683 19.4271
      vertex -81 -9.14683 19.4271
    endloop
  endfacet
  facet normal 0 -1 -0
    outer loop
      vertex -78 -9.14683 19.4271
      vertex -81 -9.14683 17.5729
      vertex -78 -9.14683 17.5729
    endloop
  endfacet
  facet normal 0 -0.308986 -0.951067
    outer loop
      vertex -81 -12 21.5
      vertex -78 -10.2366 20.9271
      vertex -78 -12 21.5
    endloop
  endfacet
  facet normal -0 -0.308986 -0.951067
    outer loop
      vertex -78 -10.2366 20.9271
      vertex -81 -12 21.5
      vertex -81 -10.2366 20.9271
    endloop
  endfacet
  facet normal 0 -0.809028 -0.58777
    outer loop
      vertex -81 -9.14683 19.4271
      vertex -78 -10.2366 20.9271
      vertex -81 -10.2366 20.9271
    endloop
  endfacet
  facet normal 0 -0.809028 -0.58777
    outer loop
      vertex -78 -10.2366 20.9271
      vertex -81 -9.14683 19.4271
      vertex -78 -9.14683 19.4271
    endloop
  endfacet
  facet normal 0 -0.308986 0.951067
    outer loop
      vertex -81 -10.2366 16.0729
      vertex -78 -12 15.5
      vertex -78 -10.2366 16.0729
    endloop
  endfacet
  facet normal 0 -0.308986 0.951067
    outer loop
      vertex -78 -12 15.5
      vertex -81 -10.2366 16.0729
      vertex -81 -12 15.5
    endloop
  endfacet
  facet normal 0 0.809021 0.58778
    outer loop
      vertex -78 -13.7634 16.0729
      vertex -81 -14.8532 17.5729
      vertex -78 -14.8532 17.5729
    endloop
  endfacet
  facet normal 0 0.809021 0.58778
    outer loop
      vertex -81 -14.8532 17.5729
      vertex -78 -13.7634 16.0729
      vertex -81 -13.7634 16.0729
    endloop
  endfacet
  facet normal 0 0.809018 -0.587784
    outer loop
      vertex 81 2.14683 19.4271
      vertex 78 3.23664 20.9271
      vertex 81 3.23664 20.9271
    endloop
  endfacet
  facet normal 0 0.809018 -0.587784
    outer loop
      vertex 78 3.23664 20.9271
      vertex 81 2.14683 19.4271
      vertex 78 2.14683 19.4271
    endloop
  endfacet
  facet normal 0 -0.809018 0.587784
    outer loop
      vertex 78 6.76336 16.0729
      vertex 81 7.85317 17.5729
      vertex 78 7.85317 17.5729
    endloop
  endfacet
  facet normal 0 -0.809018 0.587784
    outer loop
      vertex 81 7.85317 17.5729
      vertex 78 6.76336 16.0729
      vertex 81 6.76336 16.0729
    endloop
  endfacet
  facet normal 0 -0.308992 0.951065
    outer loop
      vertex 78 6.76336 16.0729
      vertex 81 5 15.5
      vertex 81 6.76336 16.0729
    endloop
  endfacet
  facet normal 0 -0.308992 0.951065
    outer loop
      vertex 81 5 15.5
      vertex 78 6.76336 16.0729
      vertex 78 5 15.5
    endloop
  endfacet
  facet normal 0 -1 0
    outer loop
      vertex 78 7.85317 17.5729
      vertex 81 7.85317 19.4271
      vertex 78 7.85317 19.4271
    endloop
  endfacet
  facet normal 0 -1 -0
    outer loop
      vertex 81 7.85317 19.4271
      vertex 78 7.85317 17.5729
      vertex 81 7.85317 17.5729
    endloop
  endfacet
  facet normal 0 0.809018 0.587784
    outer loop
      vertex 81 3.23664 16.0729
      vertex 78 2.14683 17.5729
      vertex 81 2.14683 17.5729
    endloop
  endfacet
  facet normal 0 0.809018 0.587784
    outer loop
      vertex 78 2.14683 17.5729
      vertex 81 3.23664 16.0729
      vertex 78 3.23664 16.0729
    endloop
  endfacet
  facet normal 0 1 -0
    outer loop
      vertex 81 2.14683 17.5729
      vertex 78 2.14683 19.4271
      vertex 81 2.14683 19.4271
    endloop
  endfacet
  facet normal 0 1 0
    outer loop
      vertex 78 2.14683 19.4271
      vertex 81 2.14683 17.5729
      vertex 78 2.14683 17.5729
    endloop
  endfacet
  facet normal 0 -0.809018 -0.587784
    outer loop
      vertex 78 7.85317 19.4271
      vertex 81 6.76336 20.9271
      vertex 78 6.76336 20.9271
    endloop
  endfacet
  facet normal 0 -0.809018 -0.587784
    outer loop
      vertex 81 6.76336 20.9271
      vertex 78 7.85317 19.4271
      vertex 81 7.85317 19.4271
    endloop
  endfacet
  facet normal 0 0.308992 -0.951065
    outer loop
      vertex 78 3.23664 20.9271
      vertex 81 5 21.5
      vertex 81 3.23664 20.9271
    endloop
  endfacet
  facet normal 0 0.308992 -0.951065
    outer loop
      vertex 81 5 21.5
      vertex 78 3.23664 20.9271
      vertex 78 5 21.5
    endloop
  endfacet
  facet normal 0 -0.308992 -0.951065
    outer loop
      vertex 78 5 21.5
      vertex 81 6.76336 20.9271
      vertex 81 5 21.5
    endloop
  endfacet
  facet normal -0 -0.308992 -0.951065
    outer loop
      vertex 81 6.76336 20.9271
      vertex 78 5 21.5
      vertex 78 6.76336 20.9271
    endloop
  endfacet
  facet normal -0 0.308992 0.951065
    outer loop
      vertex 78 5 15.5
      vertex 81 3.23664 16.0729
      vertex 81 5 15.5
    endloop
  endfacet
  facet normal 0 0.308992 0.951065
    outer loop
      vertex 81 3.23664 16.0729
      vertex 78 5 15.5
      vertex 78 3.23664 16.0729
    endloop
  endfacet
  facet normal 0 -0.308992 0.951065
    outer loop
      vertex 78 -3.23664 16.0729
      vertex 81 -5 15.5
      vertex 81 -3.23664 16.0729
    endloop
  endfacet
  facet normal 0 -0.308992 0.951065
    outer loop
      vertex 81 -5 15.5
      vertex 78 -3.23664 16.0729
      vertex 78 -5 15.5
    endloop
  endfacet
  facet normal 0 1 -0
    outer loop
      vertex 81 -7.85317 17.5729
      vertex 78 -7.85317 19.4271
      vertex 81 -7.85317 19.4271
    endloop
  endfacet
  facet normal 0 1 0
    outer loop
      vertex 78 -7.85317 19.4271
      vertex 81 -7.85317 17.5729
      vertex 78 -7.85317 17.5729
    endloop
  endfacet
  facet normal 0 -0.308992 -0.951065
    outer loop
      vertex 78 -5 21.5
      vertex 81 -3.23664 20.9271
      vertex 81 -5 21.5
    endloop
  endfacet
  facet normal -0 -0.308992 -0.951065
    outer loop
      vertex 81 -3.23664 20.9271
      vertex 78 -5 21.5
      vertex 78 -3.23664 20.9271
    endloop
  endfacet
  facet normal 0 0.809018 0.587784
    outer loop
      vertex 81 -6.76336 16.0729
      vertex 78 -7.85317 17.5729
      vertex 81 -7.85317 17.5729
    endloop
  endfacet
  facet normal 0 0.809018 0.587784
    outer loop
      vertex 78 -7.85317 17.5729
      vertex 81 -6.76336 16.0729
      vertex 78 -6.76336 16.0729
    endloop
  endfacet
  facet normal 0 0.308992 -0.951065
    outer loop
      vertex 78 -6.76336 20.9271
      vertex 81 -5 21.5
      vertex 81 -6.76336 20.9271
    endloop
  endfacet
  facet normal 0 0.308992 -0.951065
    outer loop
      vertex 81 -5 21.5
      vertex 78 -6.76336 20.9271
      vertex 78 -5 21.5
    endloop
  endfacet
  facet normal 0 0.809018 -0.587784
    outer loop
      vertex 81 -7.85317 19.4271
      vertex 78 -6.76336 20.9271
      vertex 81 -6.76336 20.9271
    endloop
  endfacet
  facet normal 0 0.809018 -0.587784
    outer loop
      vertex 78 -6.76336 20.9271
      vertex 81 -7.85317 19.4271
      vertex 78 -7.85317 19.4271
    endloop
  endfacet
  facet normal 0 -1 0
    outer loop
      vertex 78 -2.14683 17.5729
      vertex 81 -2.14683 19.4271
      vertex 78 -2.14683 19.4271
    endloop
  endfacet
  facet normal 0 -1 -0
    outer loop
      vertex 81 -2.14683 19.4271
      vertex 78 -2.14683 17.5729
      vertex 81 -2.14683 17.5729
    endloop
  endfacet
  facet normal 0 -0.809018 0.587784
    outer loop
      vertex 78 -3.23664 16.0729
      vertex 81 -2.14683 17.5729
      vertex 78 -2.14683 17.5729
    endloop
  endfacet
  facet normal 0 -0.809018 0.587784
    outer loop
      vertex 81 -2.14683 17.5729
      vertex 78 -3.23664 16.0729
      vertex 81 -3.23664 16.0729
    endloop
  endfacet
  facet normal 0 -0.809018 -0.587784
    outer loop
      vertex 78 -2.14683 19.4271
      vertex 81 -3.23664 20.9271
      vertex 78 -3.23664 20.9271
    endloop
  endfacet
  facet normal 0 -0.809018 -0.587784
    outer loop
      vertex 81 -3.23664 20.9271
      vertex 78 -2.14683 19.4271
      vertex 81 -2.14683 19.4271
    endloop
  endfacet
  facet normal -0 0.308992 0.951065
    outer loop
      vertex 78 -5 15.5
      vertex 81 -6.76336 16.0729
      vertex 81 -5 15.5
    endloop
  endfacet
  facet normal 0 0.308992 0.951065
    outer loop
      vertex 81 -6.76336 16.0729
      vertex 78 -5 15.5
      vertex 78 -6.76336 16.0729
    endloop
  endfacet
  facet normal -0.707107 -0.707107 0
    outer loop
      vertex -79.2124 -39.2 22.51
      vertex -78.7 -39.7124 24.505
      vertex -79.2124 -39.2 24.505
    endloop
  endfacet
  facet normal -0.707107 -0.707107 -0
    outer loop
      vertex -78.7 -39.7124 24.505
      vertex -79.2124 -39.2 22.51
      vertex -78.7 -39.7124 22.51
    endloop
  endfacet
  facet normal -0.965914 0.258865 0
    outer loop
      vertex -79.4 38.5 22.51
      vertex -79.2124 39.2 24.505
      vertex -79.2124 39.2 22.51
    endloop
  endfacet
  facet normal -0.965914 0.258865 0
    outer loop
      vertex -79.2124 39.2 24.505
      vertex -79.4 38.5 22.51
      vertex -79.4 38.5 24.505
    endloop
  endfacet
  facet normal 0.707107 -0.707107 0
    outer loop
      vertex 78.7 -39.7124 22.51
      vertex 79.2124 -39.2 24.505
      vertex 78.7 -39.7124 24.505
    endloop
  endfacet
  facet normal 0.707107 -0.707107 0
    outer loop
      vertex 79.2124 -39.2 24.505
      vertex 78.7 -39.7124 22.51
      vertex 79.2124 -39.2 22.51
    endloop
  endfacet
  facet normal 0.258865 -0.965914 0
    outer loop
      vertex 78 -39.9 22.51
      vertex 78.7 -39.7124 24.505
      vertex 78 -39.9 24.505
    endloop
  endfacet
  facet normal 0.258865 -0.965914 0
    outer loop
      vertex 78.7 -39.7124 24.505
      vertex 78 -39.9 22.51
      vertex 78.7 -39.7124 22.51
    endloop
  endfacet
  facet normal -0.707107 0.707107 0
    outer loop
      vertex -78.7 39.7124 22.51
      vertex -79.2124 39.2 24.505
      vertex -78.7 39.7124 24.505
    endloop
  endfacet
  facet normal -0.707107 0.707107 0
    outer loop
      vertex -79.2124 39.2 24.505
      vertex -78.7 39.7124 22.51
      vertex -79.2124 39.2 22.51
    endloop
  endfacet
  facet normal 0.258865 0.965914 -0
    outer loop
      vertex 78.7 39.7124 22.51
      vertex 78 39.9 24.505
      vertex 78.7 39.7124 24.505
    endloop
  endfacet
  facet normal 0.258865 0.965914 0
    outer loop
      vertex 78 39.9 24.505
      vertex 78.7 39.7124 22.51
      vertex 78 39.9 22.51
    endloop
  endfacet
  facet normal 0.965914 -0.258865 0
    outer loop
      vertex 79.2124 -39.2 24.505
      vertex 79.4 -38.5 22.51
      vertex 79.4 -38.5 24.505
    endloop
  endfacet
  facet normal 0.965914 -0.258865 0
    outer loop
      vertex 79.4 -38.5 22.51
      vertex 79.2124 -39.2 24.505
      vertex 79.2124 -39.2 22.51
    endloop
  endfacet
  facet normal 1 -0 0
    outer loop
      vertex 79.4 -38.5 24.505
      vertex 79.4 38.5 22.51
      vertex 79.4 38.5 24.505
    endloop
  endfacet
  facet normal 1 0 0
    outer loop
      vertex 79.4 38.5 22.51
      vertex 79.4 -38.5 24.505
      vertex 79.4 -38.5 22.51
    endloop
  endfacet
  facet normal 0.965914 0.258865 0
    outer loop
      vertex 79.4 38.5 24.505
      vertex 79.2124 39.2 22.51
      vertex 79.2124 39.2 24.505
    endloop
  endfacet
  facet normal 0.965914 0.258865 0
    outer loop
      vertex 79.2124 39.2 22.51
      vertex 79.4 38.5 24.505
      vertex 79.4 38.5 22.51
    endloop
  endfacet
  facet normal 0.707107 0.707107 -0
    outer loop
      vertex 79.2124 39.2 22.51
      vertex 78.7 39.7124 24.505
      vertex 79.2124 39.2 24.505
    endloop
  endfacet
  facet normal 0.707107 0.707107 0
    outer loop
      vertex 78.7 39.7124 24.505
      vertex 79.2124 39.2 22.51
      vertex 78.7 39.7124 22.51
    endloop
  endfacet
  facet normal -0.258865 0.965914 0
    outer loop
      vertex -78 39.9 22.51
      vertex -78.7 39.7124 24.505
      vertex -78 39.9 24.505
    endloop
  endfacet
  facet normal -0.258865 0.965914 0
    outer loop
      vertex -78.7 39.7124 24.505
      vertex -78 39.9 22.51
      vertex -78.7 39.7124 22.51
    endloop
  endfacet
  facet normal 0 1 -0
    outer loop
      vertex 78 39.9 22.51
      vertex -78 39.9 24.505
      vertex 78 39.9 24.505
    endloop
  endfacet
  facet normal 0 1 0
    outer loop
      vertex -78 39.9 24.505
      vertex 78 39.9 22.51
      vertex -78 39.9 22.51
    endloop
  endfacet
  facet normal -0.258865 -0.965914 0
    outer loop
      vertex -78.7 -39.7124 22.51
      vertex -78 -39.9 24.505
      vertex -78.7 -39.7124 24.505
    endloop
  endfacet
  facet normal -0.258865 -0.965914 -0
    outer loop
      vertex -78 -39.9 24.505
      vertex -78.7 -39.7124 22.51
      vertex -78 -39.9 22.51
    endloop
  endfacet
  facet normal -0 0 1
    outer loop
      vertex -78 39.9 24.505
      vertex 78 38.5 24.505
      vertex 78 39.9 24.505
    endloop
  endfacet
  facet normal 0 0 1
    outer loop
      vertex -78 39.9 24.505
      vertex -78 38.5 24.505
      vertex 78 38.5 24.505
    endloop
  endfacet
  facet normal -0 0 1
    outer loop
      vertex -78.7 39.7124 24.505
      vertex -78 38.5 24.505
      vertex -78 39.9 24.505
    endloop
  endfacet
  facet normal 0 0 1
    outer loop
      vertex -78 38.5 24.505
      vertex -79.4 38.5 24.505
      vertex -78 -38.5 24.505
    endloop
  endfacet
  facet normal -0 0 1
    outer loop
      vertex -79.2124 39.2 24.505
      vertex -78 38.5 24.505
      vertex -78.7 39.7124 24.505
    endloop
  endfacet
  facet normal 0 0 1
    outer loop
      vertex -79.4 -38.5 24.505
      vertex -78 -38.5 24.505
      vertex -79.4 38.5 24.505
    endloop
  endfacet
  facet normal 0 0 1
    outer loop
      vertex -78 38.5 24.505
      vertex -79.2124 39.2 24.505
      vertex -79.4 38.5 24.505
    endloop
  endfacet
  facet normal 0 -0 1
    outer loop
      vertex -79.2124 -39.2 24.505
      vertex -78 -38.5 24.505
      vertex -79.4 -38.5 24.505
    endloop
  endfacet
  facet normal 0 0 1
    outer loop
      vertex -78 -38.5 24.505
      vertex -78.7 -39.7124 24.505
      vertex -78 -39.9 24.505
    endloop
  endfacet
  facet normal 0 0 1
    outer loop
      vertex -78 -38.5 24.505
      vertex -79.2124 -39.2 24.505
      vertex -78.7 -39.7124 24.505
    endloop
  endfacet
  facet normal 0 0 1
    outer loop
      vertex 78 38.5 24.505
      vertex 79.4 38.5 24.505
      vertex 79.2124 39.2 24.505
    endloop
  endfacet
  facet normal 0 0 1
    outer loop
      vertex 79.4 38.5 24.505
      vertex 78 38.5 24.505
      vertex 79.4 -38.5 24.505
    endloop
  endfacet
  facet normal 0 0 1
    outer loop
      vertex 78 38.5 24.505
      vertex 79.2124 39.2 24.505
      vertex 78.7 39.7124 24.505
    endloop
  endfacet
  facet normal 0 0 1
    outer loop
      vertex 78 -38.5 24.505
      vertex 79.4 -38.5 24.505
      vertex 78 38.5 24.505
    endloop
  endfacet
  facet normal 0 0 1
    outer loop
      vertex 78 38.5 24.505
      vertex 78.7 39.7124 24.505
      vertex 78 39.9 24.505
    endloop
  endfacet
  facet normal 0 0 1
    outer loop
      vertex 79.4 -38.5 24.505
      vertex 78 -38.5 24.505
      vertex 79.2124 -39.2 24.505
    endloop
  endfacet
  facet normal 0 0 1
    outer loop
      vertex 79.2124 -39.2 24.505
      vertex 78 -38.5 24.505
      vertex 78.7 -39.7124 24.505
    endloop
  endfacet
  facet normal 0 0 1
    outer loop
      vertex 78 -38.5 24.505
      vertex 78 -39.9 24.505
      vertex 78.7 -39.7124 24.505
    endloop
  endfacet
  facet normal -0 0 1
    outer loop
      vertex -78 -38.5 24.505
      vertex 78 -39.9 24.505
      vertex 78 -38.5 24.505
    endloop
  endfacet
  facet normal 0 0 1
    outer loop
      vertex 78 -39.9 24.505
      vertex -78 -38.5 24.505
      vertex -78 -39.9 24.505
    endloop
  endfacet
  facet normal 0 -1 0
    outer loop
      vertex -78 -39.9 22.51
      vertex 78 -39.9 24.505
      vertex -78 -39.9 24.505
    endloop
  endfacet
  facet normal 0 -1 -0
    outer loop
      vertex 78 -39.9 24.505
      vertex -78 -39.9 22.51
      vertex 78 -39.9 22.51
    endloop
  endfacet
  facet normal -0.965914 -0.258865 0
    outer loop
      vertex -79.2124 -39.2 22.51
      vertex -79.4 -38.5 24.505
      vertex -79.4 -38.5 22.51
    endloop
  endfacet
  facet normal -0.965914 -0.258865 0
    outer loop
      vertex -79.4 -38.5 24.505
      vertex -79.2124 -39.2 22.51
      vertex -79.2124 -39.2 24.505
    endloop
  endfacet
  facet normal -1 0 0
    outer loop
      vertex -79.4 -38.5 22.51
      vertex -79.4 38.5 24.505
      vertex -79.4 38.5 22.51
    endloop
  endfacet
  facet normal -1 -0 0
    outer loop
      vertex -79.4 38.5 24.505
      vertex -79.4 -38.5 22.51
      vertex -79.4 -38.5 24.505
    endloop
  endfacet
  facet normal 0 0 1
    outer loop
      vertex 79.4 38.5 22.51
      vertex 81 38.5 22.51
      vertex 80.5981 40 22.51
    endloop
  endfacet
  facet normal 0 0 1
    outer loop
      vertex 81 38.5 22.51
      vertex 79.4 38.5 22.51
      vertex 81 -38.5 22.51
    endloop
  endfacet
  facet normal 0 0 1
    outer loop
      vertex 79.2124 39.2 22.51
      vertex 80.5981 40 22.51
      vertex 79.5 41.0981 22.51
    endloop
  endfacet
  facet normal 0 0 1
    outer loop
      vertex 79.4 -38.5 22.51
      vertex 81 -38.5 22.51
      vertex 79.4 38.5 22.51
    endloop
  endfacet
  facet normal 0 0 1
    outer loop
      vertex 81 -38.5 22.51
      vertex 79.4 -38.5 22.51
      vertex 80.5981 -40 22.51
    endloop
  endfacet
  facet normal 0 0 1
    outer loop
      vertex 80.5981 40 22.51
      vertex 79.2124 39.2 22.51
      vertex 79.4 38.5 22.51
    endloop
  endfacet
  facet normal 0 0 1
    outer loop
      vertex 79.5 41.0981 22.51
      vertex 78.7 39.7124 22.51
      vertex 79.2124 39.2 22.51
    endloop
  endfacet
  facet normal 0 0 1
    outer loop
      vertex 78 41.5 22.51
      vertex 78.7 39.7124 22.51
      vertex 79.5 41.0981 22.51
    endloop
  endfacet
  facet normal 0 0 1
    outer loop
      vertex 78 41.5 22.51
      vertex 78 39.9 22.51
      vertex 78.7 39.7124 22.51
    endloop
  endfacet
  facet normal -0 0 1
    outer loop
      vertex -78 41.5 22.51
      vertex 78 39.9 22.51
      vertex 78 41.5 22.51
    endloop
  endfacet
  facet normal 0 0 1
    outer loop
      vertex -78 41.5 22.51
      vertex -78 39.9 22.51
      vertex 78 39.9 22.51
    endloop
  endfacet
  facet normal 0 0 1
    outer loop
      vertex -78 41.5 22.51
      vertex -78.7 39.7124 22.51
      vertex -78 39.9 22.51
    endloop
  endfacet
  facet normal -0 0 1
    outer loop
      vertex -79.5 41.0981 22.51
      vertex -78.7 39.7124 22.51
      vertex -78 41.5 22.51
    endloop
  endfacet
  facet normal 0 0 1
    outer loop
      vertex -79.2124 39.2 22.51
      vertex -80.5981 40 22.51
      vertex -79.4 38.5 22.51
    endloop
  endfacet
  facet normal -0 0 1
    outer loop
      vertex -80.5981 40 22.51
      vertex -79.2124 39.2 22.51
      vertex -79.5 41.0981 22.51
    endloop
  endfacet
  facet normal 0 0 1
    outer loop
      vertex -78.7 39.7124 22.51
      vertex -79.5 41.0981 22.51
      vertex -79.2124 39.2 22.51
    endloop
  endfacet
  facet normal -0 0 1
    outer loop
      vertex 79.2124 -39.2 22.51
      vertex 80.5981 -40 22.51
      vertex 79.4 -38.5 22.51
    endloop
  endfacet
  facet normal 0 0 1
    outer loop
      vertex 80.5981 -40 22.51
      vertex 79.2124 -39.2 22.51
      vertex 79.5 -41.0981 22.51
    endloop
  endfacet
  facet normal -0 0 1
    outer loop
      vertex 78.7 -39.7124 22.51
      vertex 79.5 -41.0981 22.51
      vertex 79.2124 -39.2 22.51
    endloop
  endfacet
  facet normal -0 0 1
    outer loop
      vertex 78 -39.9 22.51
      vertex 79.5 -41.0981 22.51
      vertex 78.7 -39.7124 22.51
    endloop
  endfacet
  facet normal 0 0 1
    outer loop
      vertex 78 -39.9 22.51
      vertex 78 -41.5 22.51
      vertex 79.5 -41.0981 22.51
    endloop
  endfacet
  facet normal -0 0 1
    outer loop
      vertex -78 -39.9 22.51
      vertex 78 -41.5 22.51
      vertex 78 -39.9 22.51
    endloop
  endfacet
  facet normal 0 0 1
    outer loop
      vertex -78 -39.9 22.51
      vertex -78 -41.5 22.51
      vertex 78 -41.5 22.51
    endloop
  endfacet
  facet normal 0 0 1
    outer loop
      vertex -78.7 -39.7124 22.51
      vertex -78 -41.5 22.51
      vertex -78 -39.9 22.51
    endloop
  endfacet
  facet normal 0 0 1
    outer loop
      vertex -79.5 -41.0981 22.51
      vertex -78.7 -39.7124 22.51
      vertex -79.2124 -39.2 22.51
    endloop
  endfacet
  facet normal 0 0 1
    outer loop
      vertex -78.7 -39.7124 22.51
      vertex -79.5 -41.0981 22.51
      vertex -78 -41.5 22.51
    endloop
  endfacet
  facet normal 0 0 1
    outer loop
      vertex -80.5981 -40 22.51
      vertex -79.2124 -39.2 22.51
      vertex -79.4 -38.5 22.51
    endloop
  endfacet
  facet normal 0 0 1
    outer loop
      vertex -79.4 38.5 22.51
      vertex -81 38.5 22.51
      vertex -79.4 -38.5 22.51
    endloop
  endfacet
  facet normal 0 0 1
    outer loop
      vertex -79.4 38.5 22.51
      vertex -80.5981 40 22.51
      vertex -81 38.5 22.51
    endloop
  endfacet
  facet normal 0 0 1
    outer loop
      vertex -81 -38.5 22.51
      vertex -79.4 -38.5 22.51
      vertex -81 38.5 22.51
    endloop
  endfacet
  facet normal 0 -0 1
    outer loop
      vertex -80.5981 -40 22.51
      vertex -79.4 -38.5 22.51
      vertex -81 -38.5 22.51
    endloop
  endfacet
  facet normal 0 0 1
    outer loop
      vertex -79.2124 -39.2 22.51
      vertex -80.5981 -40 22.51
      vertex -79.5 -41.0981 22.51
    endloop
  endfacet
  facet normal -1 0 0
    outer loop
      vertex 60 24 0
      vertex 60 26 3
      vertex 60 26 0
    endloop
  endfacet
  facet normal -1 -0 0
    outer loop
      vertex 60 26 3
      vertex 60 24 0
      vertex 60 24 3
    endloop
  endfacet
  facet normal 1 -0 0
    outer loop
      vertex -60 24 3
      vertex -60 26 0
      vertex -60 26 3
    endloop
  endfacet
  facet normal 1 0 0
    outer loop
      vertex -60 26 0
      vertex -60 24 3
      vertex -60 24 0
    endloop
  endfacet
  facet normal 0 -1 0
    outer loop
      vertex -60 26 0
      vertex 60 26 3
      vertex -60 26 3
    endloop
  endfacet
  facet normal 0 -1 -0
    outer loop
      vertex 60 26 3
      vertex -60 26 0
      vertex 60 26 0
    endloop
  endfacet
  facet normal 0 1 -0
    outer loop
      vertex 60 24 0
      vertex -60 24 3
      vertex 60 24 3
    endloop
  endfacet
  facet normal 0 1 0
    outer loop
      vertex -60 24 3
      vertex 60 24 0
      vertex -60 24 0
    endloop
  endfacet
  facet normal -1 0 0
    outer loop
      vertex 60 19 0
      vertex 60 21 3
      vertex 60 21 0
    endloop
  endfacet
  facet normal -1 -0 0
    outer loop
      vertex 60 21 3
      vertex 60 19 0
      vertex 60 19 3
    endloop
  endfacet
  facet normal 1 -0 0
    outer loop
      vertex -60 19 3
      vertex -60 21 0
      vertex -60 21 3
    endloop
  endfacet
  facet normal 1 0 0
    outer loop
      vertex -60 21 0
      vertex -60 19 3
      vertex -60 19 0
    endloop
  endfacet
  facet normal 0 -1 0
    outer loop
      vertex -60 21 0
      vertex 60 21 3
      vertex -60 21 3
    endloop
  endfacet
  facet normal 0 -1 -0
    outer loop
      vertex 60 21 3
      vertex -60 21 0
      vertex 60 21 0
    endloop
  endfacet
  facet normal 0 1 -0
    outer loop
      vertex 60 19 0
      vertex -60 19 3
      vertex 60 19 3
    endloop
  endfacet
  facet normal 0 1 0
    outer loop
      vertex -60 19 3
      vertex 60 19 0
      vertex -60 19 0
    endloop
  endfacet
  facet normal -1 0 0
    outer loop
      vertex 60 14 0
      vertex 60 16 3
      vertex 60 16 0
    endloop
  endfacet
  facet normal -1 -0 0
    outer loop
      vertex 60 16 3
      vertex 60 14 0
      vertex 60 14 3
    endloop
  endfacet
  facet normal 1 -0 0
    outer loop
      vertex -60 14 3
      vertex -60 16 0
      vertex -60 16 3
    endloop
  endfacet
  facet normal 1 0 0
    outer loop
      vertex -60 16 0
      vertex -60 14 3
      vertex -60 14 0
    endloop
  endfacet
  facet normal 0 -1 0
    outer loop
      vertex -60 16 0
      vertex 60 16 3
      vertex -60 16 3
    endloop
  endfacet
  facet normal 0 -1 -0
    outer loop
      vertex 60 16 3
      vertex -60 16 0
      vertex 60 16 0
    endloop
  endfacet
  facet normal 0 1 -0
    outer loop
      vertex 60 14 0
      vertex -60 14 3
      vertex 60 14 3
    endloop
  endfacet
  facet normal 0 1 0
    outer loop
      vertex -60 14 3
      vertex 60 14 0
      vertex -60 14 0
    endloop
  endfacet
  facet normal -1 0 0
    outer loop
      vertex 60 9 0
      vertex 60 11 3
      vertex 60 11 0
    endloop
  endfacet
  facet normal -1 -0 0
    outer loop
      vertex 60 11 3
      vertex 60 9 0
      vertex 60 9 3
    endloop
  endfacet
  facet normal 1 -0 0
    outer loop
      vertex -60 9 3
      vertex -60 11 0
      vertex -60 11 3
    endloop
  endfacet
  facet normal 1 0 0
    outer loop
      vertex -60 11 0
      vertex -60 9 3
      vertex -60 9 0
    endloop
  endfacet
  facet normal 0 -1 0
    outer loop
      vertex -60 11 0
      vertex 60 11 3
      vertex -60 11 3
    endloop
  endfacet
  facet normal 0 -1 -0
    outer loop
      vertex 60 11 3
      vertex -60 11 0
      vertex 60 11 0
    endloop
  endfacet
  facet normal 0 1 -0
    outer loop
      vertex 60 9 0
      vertex -60 9 3
      vertex 60 9 3
    endloop
  endfacet
  facet normal 0 1 0
    outer loop
      vertex -60 9 3
      vertex 60 9 0
      vertex -60 9 0
    endloop
  endfacet
  facet normal -1 0 0
    outer loop
      vertex 60 4 0
      vertex 60 6 3
      vertex 60 6 0
    endloop
  endfacet
  facet normal -1 -0 0
    outer loop
      vertex 60 6 3
      vertex 60 4 0
      vertex 60 4 3
    endloop
  endfacet
  facet normal 1 -0 0
    outer loop
      vertex -60 4 3
      vertex -60 6 0
      vertex -60 6 3
    endloop
  endfacet
  facet normal 1 0 0
    outer loop
      vertex -60 6 0
      vertex -60 4 3
      vertex -60 4 0
    endloop
  endfacet
  facet normal 0 -1 0
    outer loop
      vertex -60 6 0
      vertex 60 6 3
      vertex -60 6 3
    endloop
  endfacet
  facet normal 0 -1 -0
    outer loop
      vertex 60 6 3
      vertex -60 6 0
      vertex 60 6 0
    endloop
  endfacet
  facet normal 0 1 -0
    outer loop
      vertex 60 4 0
      vertex -60 4 3
      vertex 60 4 3
    endloop
  endfacet
  facet normal 0 1 0
    outer loop
      vertex -60 4 3
      vertex 60 4 0
      vertex -60 4 0
    endloop
  endfacet
  facet normal -1 0 0
    outer loop
      vertex 60 -1 0
      vertex 60 1 3
      vertex 60 1 0
    endloop
  endfacet
  facet normal -1 -0 0
    outer loop
      vertex 60 1 3
      vertex 60 -1 0
      vertex 60 -1 3
    endloop
  endfacet
  facet normal 1 -0 0
    outer loop
      vertex -60 -1 3
      vertex -60 1 0
      vertex -60 1 3
    endloop
  endfacet
  facet normal 1 0 0
    outer loop
      vertex -60 1 0
      vertex -60 -1 3
      vertex -60 -1 0
    endloop
  endfacet
  facet normal 0 -1 0
    outer loop
      vertex -60 1 0
      vertex 60 1 3
      vertex -60 1 3
    endloop
  endfacet
  facet normal 0 -1 -0
    outer loop
      vertex 60 1 3
      vertex -60 1 0
      vertex 60 1 0
    endloop
  endfacet
  facet normal 0 1 -0
    outer loop
      vertex 60 -1 0
      vertex -60 -1 3
      vertex 60 -1 3
    endloop
  endfacet
  facet normal 0 1 0
    outer loop
      vertex -60 -1 3
      vertex 60 -1 0
      vertex -60 -1 0
    endloop
  endfacet
  facet normal -1 0 0
    outer loop
      vertex 60 -6 0
      vertex 60 -4 3
      vertex 60 -4 0
    endloop
  endfacet
  facet normal -1 -0 0
    outer loop
      vertex 60 -4 3
      vertex 60 -6 0
      vertex 60 -6 3
    endloop
  endfacet
  facet normal 1 -0 0
    outer loop
      vertex -60 -6 3
      vertex -60 -4 0
      vertex -60 -4 3
    endloop
  endfacet
  facet normal 1 0 0
    outer loop
      vertex -60 -4 0
      vertex -60 -6 3
      vertex -60 -6 0
    endloop
  endfacet
  facet normal 0 -1 0
    outer loop
      vertex -60 -4 0
      vertex 60 -4 3
      vertex -60 -4 3
    endloop
  endfacet
  facet normal 0 -1 -0
    outer loop
      vertex 60 -4 3
      vertex -60 -4 0
      vertex 60 -4 0
    endloop
  endfacet
  facet normal 0 1 -0
    outer loop
      vertex 60 -6 0
      vertex -60 -6 3
      vertex 60 -6 3
    endloop
  endfacet
  facet normal 0 1 0
    outer loop
      vertex -60 -6 3
      vertex 60 -6 0
      vertex -60 -6 0
    endloop
  endfacet
  facet normal -1 0 0
    outer loop
      vertex 60 -11 0
      vertex 60 -9 3
      vertex 60 -9 0
    endloop
  endfacet
  facet normal -1 -0 0
    outer loop
      vertex 60 -9 3
      vertex 60 -11 0
      vertex 60 -11 3
    endloop
  endfacet
  facet normal 1 -0 0
    outer loop
      vertex -60 -11 3
      vertex -60 -9 0
      vertex -60 -9 3
    endloop
  endfacet
  facet normal 1 0 0
    outer loop
      vertex -60 -9 0
      vertex -60 -11 3
      vertex -60 -11 0
    endloop
  endfacet
  facet normal 0 -1 0
    outer loop
      vertex -60 -9 0
      vertex 60 -9 3
      vertex -60 -9 3
    endloop
  endfacet
  facet normal 0 -1 -0
    outer loop
      vertex 60 -9 3
      vertex -60 -9 0
      vertex 60 -9 0
    endloop
  endfacet
  facet normal 0 1 -0
    outer loop
      vertex 60 -11 0
      vertex -60 -11 3
      vertex 60 -11 3
    endloop
  endfacet
  facet normal 0 1 0
    outer loop
      vertex -60 -11 3
      vertex 60 -11 0
      vertex -60 -11 0
    endloop
  endfacet
  facet normal -1 0 0
    outer loop
      vertex 60 -16 0
      vertex 60 -14 3
      vertex 60 -14 0
    endloop
  endfacet
  facet normal -1 -0 0
    outer loop
      vertex 60 -14 3
      vertex 60 -16 0
      vertex 60 -16 3
    endloop
  endfacet
  facet normal 1 -0 0
    outer loop
      vertex -60 -16 3
      vertex -60 -14 0
      vertex -60 -14 3
    endloop
  endfacet
  facet normal 1 0 0
    outer loop
      vertex -60 -14 0
      vertex -60 -16 3
      vertex -60 -16 0
    endloop
  endfacet
  facet normal 0 -1 0
    outer loop
      vertex -60 -14 0
      vertex 60 -14 3
      vertex -60 -14 3
    endloop
  endfacet
  facet normal 0 -1 -0
    outer loop
      vertex 60 -14 3
      vertex -60 -14 0
      vertex 60 -14 0
    endloop
  endfacet
  facet normal 0 1 -0
    outer loop
      vertex 60 -16 0
      vertex -60 -16 3
      vertex 60 -16 3
    endloop
  endfacet
  facet normal 0 1 0
    outer loop
      vertex -60 -16 3
      vertex 60 -16 0
      vertex -60 -16 0
    endloop
  endfacet
  facet normal -1 0 0
    outer loop
      vertex 60 -21 0
      vertex 60 -19 3
      vertex 60 -19 0
    endloop
  endfacet
  facet normal -1 -0 0
    outer loop
      vertex 60 -19 3
      vertex 60 -21 0
      vertex 60 -21 3
    endloop
  endfacet
  facet normal 1 -0 0
    outer loop
      vertex -60 -21 3
      vertex -60 -19 0
      vertex -60 -19 3
    endloop
  endfacet
  facet normal 1 0 0
    outer loop
      vertex -60 -19 0
      vertex -60 -21 3
      vertex -60 -21 0
    endloop
  endfacet
  facet normal 0 -1 0
    outer loop
      vertex -60 -19 0
      vertex 60 -19 3
      vertex -60 -19 3
    endloop
  endfacet
  facet normal 0 -1 -0
    outer loop
      vertex 60 -19 3
      vertex -60 -19 0
      vertex 60 -19 0
    endloop
  endfacet
  facet normal 0 1 -0
    outer loop
      vertex 60 -21 0
      vertex -60 -21 3
      vertex 60 -21 3
    endloop
  endfacet
  facet normal 0 1 0
    outer loop
      vertex -60 -21 3
      vertex 60 -21 0
      vertex -60 -21 0
    endloop
  endfacet
  facet normal -1 0 0
    outer loop
      vertex 60 -26 0
      vertex 60 -24 3
      vertex 60 -24 0
    endloop
  endfacet
  facet normal -1 -0 0
    outer loop
      vertex 60 -24 3
      vertex 60 -26 0
      vertex 60 -26 3
    endloop
  endfacet
  facet normal 1 -0 0
    outer loop
      vertex -60 -26 3
      vertex -60 -24 0
      vertex -60 -24 3
    endloop
  endfacet
  facet normal 1 0 0
    outer loop
      vertex -60 -24 0
      vertex -60 -26 3
      vertex -60 -26 0
    endloop
  endfacet
  facet normal 0 -1 0
    outer loop
      vertex -60 -24 0
      vertex 60 -24 3
      vertex -60 -24 3
    endloop
  endfacet
  facet normal 0 -1 -0
    outer loop
      vertex 60 -24 3
      vertex -60 -24 0
      vertex 60 -24 0
    endloop
  endfacet
  facet normal 0 1 -0
    outer loop
      vertex 60 -26 0
      vertex -60 -26 3
      vertex 60 -26 3
    endloop
  endfacet
  facet normal 0 1 0
    outer loop
      vertex -60 -26 3
      vertex 60 -26 0
      vertex -60 -26 0
    endloop
  endfacet
endsolid OpenSCAD_Model
